/* XPM */
static char *_361_fe05a51d7c203c7ef7352e2445168f3d5c32dbd1d03ccabd8431547ee2b8fa95[] = {
/* columns rows colors chars-per-pixel */
"32 32 5 1 ",
"  c #14182E",
". c #C8D45D",
"X c #0095E9",
"o c #2CE8F5",
"O c #F5FFE8",
/* pixels */
"................................",
"................................",
"................................",
"................................",
"................................",
"................................",
"................................",
"................................",
"................................",
".............      .............",
".............      .............",
"...........  oooooo  ...........",
"...........  oooooo  ...........",
".........  ooOOXXXXoo  .........",
".........  ooOOXXXXoo  .........",
".........  ooXXXXXXoo  .........",
".........  ooXXXXXXoo  .........",
".........  ooXXXXXXoo  .........",
".........  ooXXXXXXoo  .........",
"...........  oooooo  ...........",
"...........  oooooo  ...........",
".............      .............",
".............      .............",
"................................",
"................................",
"................................",
"................................",
"................................",
"................................",
"................................",
"................................",
"................................"
};
