/* XPM */
static char *_219_b12f3f169ce03e493f2d05b2719879b71996cfb4d5635b73d838470f103c300e[] = {
/* columns rows colors chars-per-pixel */
"32 32 6 1 ",
"  c #14182E",
". c #AD2F45",
"X c #F0B541",
"o c #C8D45D",
"O c #FFEE83",
"+ c #F5FFE8",
/* pixels */
"oooooooooooooooooooooooooooooooo",
"oooooooooooooooooooooooooooooooo",
"oooo    oooooooooooooooo    oooo",
"oooo    oooooooooooooooo    oooo",
"oo  OO                    OO  oo",
"oo  OO                    OO  oo",
"oo  OO      ++    ++      OO  oo",
"oo  OO      ++    ++      OO  oo",
"oo  OOOOOOXXOO    OOXXOOOOOO  oo",
"oo  OOOOOOXXOO    OOXXOOOOOO  oo",
"oo            OOOO            oo",
"oo            OOOO            oo",
"oo                            oo",
"oo                            oo",
"oo  XX                    XX  oo",
"oo  XX                    XX  oo",
"oo  XX                    XX  oo",
"oo  XX                    XX  oo",
"oo  XX                    XX  oo",
"oo  XX                    XX  oo",
"oo  XX                    XX  oo",
"oo  XX                    XX  oo",
"oo  OO  ................  OO  oo",
"oo  OO  ................  OO  oo",
"oo  OO  ................  OO  oo",
"oo  OO  ................  OO  oo",
"oo  OO                    OO  oo",
"oo  OO                    OO  oo",
"oo  OOOOOOOOOOOOOOOOOOOOOOOO  oo",
"oo  OOOOOOOOOOOOOOOOOOOOOOOO  oo",
"oo  XX                    XX  oo",
"oo  XX                    XX  oo"
};
