/* XPM */
static char *_8395_9ddbf0b364b180aec7c802d96bd03dd33f8f2421d0800f60bb7f61c5ac5bf8ae[] = {
/* columns rows colors chars-per-pixel */
"32 32 7 1 ",
"  c #14182E",
". c #E64539",
"X c #AD2F45",
"o c #F0B541",
"O c #C8D45D",
"+ c #FFEE83",
"@ c #F5FFE8",
/* pixels */
"OOOOOOOOOOOOOOOOOOOOOOOOOOOOOOOO",
"OOOOOOOOOOOOOOOOOOOOOOOOOOOOOOOO",
"OOOOOOOOOOOOOOOOOOOOOOOOOOOOOOOO",
"OOOOOOOOOOOOOOOOOOOOOOOOOOOOOOOO",
"OOOOOOOOOOOOOOOOOOOOOOOOOOOOOOOO",
"OOOOOOOOOOOOOOOOOOOOOOOOOOOOOOOO",
"OOOO    OOOOOOOOOOOOOOOO    OOOO",
"OOOO    OOOOOOOOOOOOOOOO    OOOO",
"OO  ++                    ++  OO",
"OO  ++                    ++  OO",
"OO  ++  XXXXXXXXXXXXXXXX  ++  OO",
"OO  ++  XXXXXXXXXXXXXXXX  ++  OO",
"OO  @@  ................  @@  OO",
"OO  @@  ................  @@  OO",
"OO  ++  XXXXXXXXXXXXXXXX  ++  OO",
"OO  ++  XXXXXXXXXXXXXXXX  ++  OO",
"OO  ++  XXXX        XXXX  ++  OO",
"OO  ++  XXXX        XXXX  ++  OO",
"OO  ++      @@@@@@@@      ++  OO",
"OO  ++      @@@@@@@@      ++  OO",
"OO  ++++++oo++    ++oo++++++  OO",
"OO  ++++++oo++    ++oo++++++  OO",
"OO          ++    ++          OO",
"OO          ++    ++          OO",
"OO  oo  XXXX  ++++  XXXX  oo  OO",
"OO  oo  XXXX  ++++  XXXX  oo  OO",
"OO  ++                    ++  OO",
"OO  ++                    ++  OO",
"OO  ++++++++++++++++++++++++  OO",
"OO  ++++++++++++++++++++++++  OO",
"OO  oo                    oo  OO",
"OO  oo                    oo  OO"
};
