/* XPM */
static char *_5761_cc06ee19eb4352cc4a18b17231e002252b124f2070d8e044d5d9579427c055e4[] = {
/* columns rows colors chars-per-pixel */
"32 32 11 1 ",
"  c #14182E",
". c #52333F",
"X c #2B2B45",
"o c #3A3F5E",
"O c #8F4D57",
"+ c #BD6A62",
"@ c #C8D45D",
"# c #4C6885",
"$ c #4FA4B8",
"% c #FFC2A1",
"& c #DFE0E8",
/* pixels */
"@@@@@@@@@@            @@@@@@@@@@",
"@@@@@@@@@@            @@@@@@@@@@",
"@@@@@@@@  oooooooooooo  @@@@@@@@",
"@@@@@@@@  oooooooooooo  @@@@@@@@",
"@@@@@@  oooooooooooooooo  @@@@@@",
"@@@@@@  oooooooooooooooo  @@@@@@",
"@@@@@@  oooooooooooooooo  @@@@@@",
"@@@@@@  oooooooooooooooo  @@@@@@",
"@@@@@@  oo%%oooooooo%%oo  @@@@@@",
"@@@@@@  oo%%oooooooo%%oo  @@@@@@",
"@@@@@@  oo%%%%%%%%%%%%oo  @@@@@@",
"@@@@@@  oo%%%%%%%%%%%%oo  @@@@@@",
"@@@@  %%ooXXXX%%%%XXXXoo%%  @@@@",
"@@@@  %%ooXXXX%%%%XXXXoo%%  @@@@",
"@@@@  %%oo%%  %%%%  %%oo%%  @@@@",
"@@@@  %%oo%%  %%%%  %%oo%%  @@@@",
"@@@@@@  ++%%  ++++  %%++  @@@@@@",
"@@@@@@  ++%%  ++++  %%++  @@@@@@",
"@@@@@@    ++%%%%%%%%++    @@@@@@",
"@@@@@@    ++%%%%%%%%++    @@@@@@",
"@@@@  %%&&..OO++++OO..&&%%  @@@@",
"@@@@  %%&&..OO++++OO..&&%%  @@@@",
"@@  %%++  ..OO&&&&OO..  ++%%  @@",
"@@  %%++  ..OO&&&&OO..  ++%%  @@",
"@@  %%%%  OOOO&&&&OOOO  %%%%  @@",
"@@  %%%%  OOOO&&&&OOOO  %%%%  @@",
"@@@@        ##$$$$##        @@@@",
"@@@@        ##$$$$##        @@@@",
"@@@@@@@@  ++++    ++++  @@@@@@@@",
"@@@@@@@@  ++++    ++++  @@@@@@@@",
"@@@@@@@@@@    @@@@    @@@@@@@@@@",
"@@@@@@@@@@    @@@@    @@@@@@@@@@"
};
