/* XPM */
static char *_5701_f46c9afaf64a7392726b333838c7035b9a4554a34a5aa671557c0f2f1452ad2d[] = {
/* columns rows colors chars-per-pixel */
"32 32 11 1 ",
"  c #14182E",
". c #52333F",
"X c #2B2B45",
"o c #3A3F5E",
"O c #8F4D57",
"+ c #BD6A62",
"@ c #4C6885",
"# c #4FA4B8",
"$ c #FFC2A1",
"% c #DFE0E8",
"& c None",
/* pixels */
"&&&&&&&&&&            &&&&&&&&&&",
"&&&&&&&&&&            &&&&&&&&&&",
"&&&&&&&&  oooooooooooo  &&&&&&&&",
"&&&&&&&&  oooooooooooo  &&&&&&&&",
"&&&&&&  oooooooooooooooo  &&&&&&",
"&&&&&&  oooooooooooooooo  &&&&&&",
"&&&&&&  oooooooooooooooo  &&&&&&",
"&&&&&&  oooooooooooooooo  &&&&&&",
"&&&&&&  oo$$oooooooo$$oo  &&&&&&",
"&&&&&&  oo$$oooooooo$$oo  &&&&&&",
"&&&&&&  oo$$$$$$$$$$$$oo  &&&&&&",
"&&&&&&  oo$$$$$$$$$$$$oo  &&&&&&",
"&&&&  $$ooXXXX$$$$XXXXoo$$  &&&&",
"&&&&  $$ooXXXX$$$$XXXXoo$$  &&&&",
"&&&&  $$oo$$  $$$$  $$oo$$  &&&&",
"&&&&  $$oo$$  $$$$  $$oo$$  &&&&",
"&&&&&&  ++$$  ++++  $$++  &&&&&&",
"&&&&&&  ++$$  ++++  $$++  &&&&&&",
"&&&&&&    ++$$$$$$$$++    &&&&&&",
"&&&&&&    ++$$$$$$$$++    &&&&&&",
"&&&&  $$%%..OO++++OO..%%$$  &&&&",
"&&&&  $$%%..OO++++OO..%%$$  &&&&",
"&&  $$++  ..OO%%%%OO..  ++$$  &&",
"&&  $$++  ..OO%%%%OO..  ++$$  &&",
"&&  $$$$  OOOO%%%%OOOO  $$$$  &&",
"&&  $$$$  OOOO%%%%OOOO  $$$$  &&",
"&&&&        @@####@@        &&&&",
"&&&&        @@####@@        &&&&",
"&&&&&&&&  ++++    ++++  &&&&&&&&",
"&&&&&&&&  ++++    ++++  &&&&&&&&",
"&&&&&&&&&&    &&&&    &&&&&&&&&&",
"&&&&&&&&&&    &&&&    &&&&&&&&&&"
};
