/* XPM */
static char *_8519_160cb151b5de202ad12f9c25f722f2b6b5dba2c459845659fd59b4c9232ef0c5[] = {
/* columns rows colors chars-per-pixel */
"32 32 5 1 ",
"  c #181425",
". c #404973",
"X c #C8D45D",
"o c #686F99",
"O c #A3A7C2",
/* pixels */
"XXXXXXXX               XXXXXXXXX",
"XXXXXXXX               XXXXXXXXX",
"XXXXXX  oooOOOOOOOOOOoo   XXXXXX",
"XXXXXX  oooOOOOOOOOOOoo   XXXXXX",
"XXXX  ooOOOOOOOOOOOOOOOooo  XXXX",
"XXXX  ooOOOOOOOOOOOOOOOooo  XXXX",
"XX  ooOOOOOOOOOOOOOOOOOOOOoo  XX",
"XX  ooOOOOOOOOOOOOOOOOOOOOoo  XX",
"  ooOOOOOOOOOOOOOOOOOOOOOOOOoo  ",
"  ooOOOOOOOOOOOOOOOOOOOOOOOOoo  ",
"  ooOOOOOOOOOOOOOOOOOOOOOOOOoo  ",
"  ooOOOOOOOOOOOOOOOOOOOOOOOOoo  ",
"  ooOOOOOOOOOOOOOOOOOOOOOOOOoo  ",
"  ..ooOOOOOOOOOOOOOOOOOOOOoo..  ",
"  ..ooOOOOOOOOOOOOOOOOOOOOoo..  ",
"  ....ooOOOOOOOOOOOOOOOooo....  ",
"  ....ooOOOOOOOOOOOOOOOooo....  ",
"  ......oooOOOOOOOOOOoo.......  ",
"  ......oooOOOOOOOOOOoo.......  ",
"  .........oooooooooo.........  ",
"  .........oooooooooo.........  ",
"  .........oooooooooo.........  ",
"  .........oooooooooo.........  ",
"XX  .......oooooooooo.......  XX",
"XX  .......oooooooooo.......  XX",
"XX  .......oooooooooo.......  XX",
"XXXX  .....oooooooooo.....  XXXX",
"XXXX  .....oooooooooo.....  XXXX",
"XXXXXX  ...oooooooooo..   XXXXXX",
"XXXXXX  ...oooooooooo..   XXXXXX",
"XXXXXXXX               XXXXXXXXX",
"XXXXXXXX               XXXXXXXXX"
};
