/* XPM */
static char *_9280_4bb9466f5b1cfd484e95af0498099943554eb7de8ff87442b908d5f8913c4d62[] = {
/* columns rows colors chars-per-pixel */
"32 32 6 1 ",
"  c #14182E",
". c #AD2F45",
"X c #C8D45D",
"o c #686F99",
"O c #A3A7C2",
"+ c #DFE0E8",
/* pixels */
"XXXXXXXXXX            XXXXXXXXXX",
"XXXXXXXXXX            XXXXXXXXXX",
"XXXXXXXX  OO++++++++OO  XXXXXXXX",
"XXXXXXXX  OO++++++++OO  XXXXXXXX",
"XXXXXX  OO++++++++++++OO  XXXXXX",
"XXXXXX  OO++++++++++++OO  XXXXXX",
"XXXXXX  OO++++++++++++OO  XXXXXX",
"XXXXXX  OO++++++++++++OO  XXXXXX",
"XXXXXX  ooOO++++++++OOoo  XXXXXX",
"XXXXXX  ooOO++++++++OOoo  XXXXXX",
"XXXXXX  OO  OO++++OO  OO  XXXXXX",
"XXXXXX  OO  OO++++OO  OO  XXXXXX",
"XXXXXX  OO    OOOO    OO  XXXXXX",
"XXXXXX  OO    OOOO    OO  XXXXXX",
"XXXXXX  OO  ..++++..  OO  XXXXXX",
"XXXXXX  OO  ..++++..  OO  XXXXXX",
"XXXXXXXX  OO++oooo++OO  XXXXXXXX",
"XXXXXXXX  OO++oooo++OO  XXXXXXXX",
"XXXXXX    ++  ++++  ++    XXXXXX",
"XXXXXX    ++  ++++  ++    XXXXXX",
"XXXX  ++++            ++++  XXXX",
"XXXX  ++++            ++++  XXXX",
"XX  ++OO  ooOO++++OOoo  OO++  XX",
"XX  ++OO  ooOO++++OOoo  OO++  XX",
"XX  ++++  OO++oooo++OO  ++++  XX",
"XX  ++++  OO++oooo++OO  ++++  XX",
"XXXX        ooOOOOoo        XXXX",
"XXXX        ooOOOOoo        XXXX",
"XXXXXXXX  OOOO    OOOO  XXXXXXXX",
"XXXXXXXX  OOOO    OOOO  XXXXXXXX",
"XXXXXXXXXX    XXXX    XXXXXXXXXX",
"XXXXXXXXXX    XXXX    XXXXXXXXXX"
};
