/* XPM */
static char *_9861_9e7e357ac0406f79e8ded5ba5b271441a112396da6b87c9880ca0e27319b14e2[] = {
/* columns rows colors chars-per-pixel */
"32 32 14 1 ",
"  c #14182E",
". c #52333F",
"X c #2C354D",
"o c #404973",
"O c #8F4D57",
"+ c #BD6A62",
"@ c #F0B541",
"# c #C8D45D",
"$ c #4C6885",
"% c #686F99",
"& c #4FA4B8",
"* c #FFEE83",
"= c #FFC2A1",
"- c #DFE0E8",
/* pixels */
"################################",
"################################",
"####    ##            ##    ####",
"####    ##            ##    ####",
"##  **    oooooooooooo    **  ##",
"##  **    oooooooooooo    **  ##",
"##  **  %%oooooooooooo%%  **  ##",
"##  **  %%oooooooooooo%%  **  ##",
"##  **  %%oooooooooooo%%  **  ##",
"##  **  %%oooooooooooo%%  **  ##",
"##      oo%%oooooooo%%oo      ##",
"##      oo%%oooooooo%%oo      ##",
"##      oooo========oooo      ##",
"##      oooo========oooo      ##",
"##    ==XXXXXX====XXXXXX==    ##",
"##    ==XXXXXX====XXXXXX==    ##",
"##    ==oo==  ====  ==oo==    ##",
"##    ==oo==  ====  ==oo==    ##",
"##  @@  oo==  ++++  ==oo  @@  ##",
"##  @@  oo==  ++++  ==oo  @@  ##",
"##  @@  oo++========++oo  @@  ##",
"##  @@  oo++========++oo  @@  ##",
"##    ==--..OO----OO..--==    ##",
"##    ==--..OO----OO..--==    ##",
"##  ==++  OOOO----OOOO  ++==  ##",
"##  ==++  OOOO----OOOO  ++==  ##",
"##  ====    $$&&&&$$    ====  ##",
"##  ====    $$&&&&$$    ====  ##",
"##        ++++    ++++        ##",
"##        ++++    ++++        ##",
"##  @@                    @@  ##",
"##  @@                    @@  ##"
};
