/* XPM */
static char *_325_71d293e824dc28adb4414aab9477808fc64480eb9afc7fb487bb37f78e2d8f14[] = {
/* columns rows colors chars-per-pixel */
"45 45 58 1 ",
"  c #0A112B",
". c #FF4336",
"X c #C92B44",
"o c #FFB632",
"O c #9FAC40",
"+ c #9FAE41",
"@ c #A0AD40",
"# c #A0AF41",
"$ c #A1B042",
"% c #A2B142",
"& c #A3B143",
"* c #A4B343",
"= c #A5B343",
"- c #A6B444",
"; c #A7B544",
": c #A8B645",
"> c #A9B745",
", c #AAB846",
"< c #ABB946",
"1 c #ACBA45",
"2 c #ADBB47",
"3 c #AEBC46",
"4 c #AFBD48",
"5 c #B0BE47",
"6 c #B1BF49",
"7 c #B1C048",
"8 c #B3C249",
"9 c #B2C14A",
"0 c #B4C349",
"q c #B5C44A",
"w c #B6C54A",
"e c #B7C64B",
"r c #B8C74B",
"t c #B9C84C",
"y c #BAC94C",
"u c #BBCA4C",
"i c #BCCB4D",
"p c #BDCC4D",
"a c #BECD4E",
"s c #BFCE4E",
"d c #C0CF4F",
"f c #C1D04F",
"g c #C2D150",
"h c #C3D250",
"j c #C2D350",
"k c #C3D451",
"l c #C4D551",
"z c #C5D652",
"x c #C6D752",
"c c #C7D853",
"v c #C8D953",
"b c #C9DA53",
"n c #CADB54",
"m c #CBDC54",
"M c #CCDD55",
"N c #CDDE55",
"B c #FFEF7D",
"V c #F1FFE8",
/* pixels */
"1c$2,;@7pzp%9:qjMh2&3,9i1khM:rn#ng*n@6$jk=k-+",
"0uh3bm24tqiw:=:=f7+tjs4$dNxptk7&v%25zc2kqzj<t",
"8iv%wxM>M<;z7zw#dh#rtq-9,aMp>3uM&ql;8*qg#N*4:",
"M=n5j:3jq,Nn7$rsy$n4a,<aul;s6pirazc2amnzru*e,",
"306Mi<@ytwk#>n,n6ns22xk&yNn#dl30bykNf-h3@vd69",
"yNf+3;ef,kq5cu9856bNnr>2=vec10pr*h6,hzbhf+gyv",
"q>170$a3e6h$q7766x>c-:yNu>e3c77&w%#mNMOqk<n=3",
"ljsN>uqt+pps2i9wu#elh&4;1$ndf-bc--tO$>OM3n-q#",
"*jg+av     >b#hf<<50g<7f*h-&Mcpey7     cgfvsq",
"$d5q0f     z8pO,b+lmf+e<nb,3%5+h$w     f-,92*",
"y<:1g*     9m<,&83sm4<gN4;1#dd@;nd     zOqze:",
"-=    BB                            BBB   <rq",
"yy    BB                            BBB   p=k",
"1$    BB                            BBB   4Mp",
"mj    BB   XXXXXXXXXXXXXXXXXXXXXXX  BBB   &-t",
"j3    BB   XXXXXXXXXXXXXXXXXXXXXXX  BBB   >;N",
"<-    BB   XXXXXXXXXXXXXXXXXXXXXXX  BBB   -6l",
"lq    VV   .......................  VVV   @,i",
";h    VV   .......................  VVV   mp1",
":p    VV   .......................  VVV   g3d",
"Oe    BB   XXXXXXXXXXXXXXXXXXXXXXX  BBB   +,7",
"x4    BB   XXXXXXXXXXXXXXXXXXXXXXX  BBB   xb>",
"i9    BB   XXXXXX           XXXXXX  BBB   #1p",
"1<    BB   XXXXXX           XXXXXX  BBB   7$d",
"b-    BB   XXXXXX           XXXXXX  BBB   @Nf",
"x9    BB         VVVVVVVVVVV        BBB   txu",
"0s    BB         VVVVVVVVVVV        BBB   3w%",
"#w    BB         VVVVVVVVVVV        BBB   &s1",
"lk    BBBBBBBBoooBBB     BBBoooBBBBBBBB   v9&",
"pm    BBBBBBBBoooBBB     BBBoooBBBBBBBB   <O%",
"60    BBBBBBBBoooBBB     BBBoooBBBBBBBB   20k",
"-*               BBB     BBB              -N=",
"k9               BBB     BBB              2j1",
"#9               BBB     BBB              a7s",
"5j    oo   XXXXXX   BBBBB   XXXXXX  ooo   2c2",
"<8    oo   XXXXXX   BBBBB   XXXXXX  ooo   x:M",
"vt    BB                            BBB   a,1",
"n3    BB                            BBB   5nr",
"+;    BB                            BBB   0a*",
"e@    BBBBBBBBBBBBBBBBBBBBBBBBBBBBBBBBB   sgs",
"nx    BBBBBBBBBBBBBBBBBBBBBBBBBBBBBBBBB   2z7",
"iM    BBBBBBBBBBBBBBBBBBBBBBBBBBBBBBBBB   @jz",
"jw    oo                            ooo   #tz",
"a%    oo                            ooo   3qf",
",b    oo                            ooo   07@"
};
