/* XPM */
static char *_547_684c97879f3457c2fab07ea74b7b35f153d733d977730fc15bbb13e9b9a85200[] = {
/* columns rows colors chars-per-pixel */
"45 45 57 1 ",
"  c #0A112B",
". c #C92B44",
"X c #FFB632",
"o c #9FAC40",
"O c #9FAE41",
"+ c #A0AD40",
"@ c #A0AF41",
"# c #A1B042",
"$ c #A2B142",
"% c #A3B143",
"& c #A4B343",
"* c #A5B343",
"= c #A6B444",
"- c #A7B544",
"; c #A8B645",
": c #A9B745",
"> c #AAB846",
", c #ABB946",
"< c #ACBA45",
"1 c #ADBB47",
"2 c #AEBC46",
"3 c #AFBD48",
"4 c #B0BE47",
"5 c #B1BF49",
"6 c #B1C048",
"7 c #B3C249",
"8 c #B2C14A",
"9 c #B4C349",
"0 c #B5C44A",
"q c #B6C54A",
"w c #B7C64B",
"e c #B8C74B",
"r c #B9C84C",
"t c #BAC94C",
"y c #BBCA4C",
"u c #BCCB4D",
"i c #BDCC4D",
"p c #BECD4E",
"a c #BFCE4E",
"s c #C0CF4F",
"d c #C1D04F",
"f c #C2D150",
"g c #C3D250",
"h c #C2D350",
"j c #C3D451",
"k c #C4D551",
"l c #C5D652",
"z c #C6D752",
"x c #C7D853",
"c c #C8D953",
"v c #C9DA53",
"b c #CADB54",
"n c #CBDC54",
"m c #CCDD55",
"M c #CDDE55",
"N c #FFEF7D",
"B c #F1FFE8",
/* pixels */
"<x#1>-+6ili$8;0hmg1%2>8u<jgm;eb@bf&b+5#hj*j=O",
"9yg2vn13r0uq;*;*d6Orha3#sMzirj6%c$14lx1j0lh,r",
"7uc$qz     l6lq@sg@er0=8>pmi:2ym%0     f@M&3;",
"m*b4h;     b6#eat#b3p>,pyk-a5iuepl     ley&w>",
"295mu,     @:b>b5ba11zj%tMb@sk29vt     2+cs58",
"tMdO2-     4xy8745vMbe:1*cwx<9ie&g     gdOftc",
"0:<   NN                            NNN    *2",
"kha   NN                            NNN    0@",
"&hf   NN         BBB     BBB        NNN    a0",
"#s4   NN         BBB     BBB        NNN    1&",
"t,;   NN         BBB     BBB        NNN    w;",
"=*k   NNNNNNNNXXXNNN     NNNXXXNNNNNNNN    e0",
"ttl   NNNNNNNNXXXNNN     NNNXXXNNNNNNNN    *j",
"<#<   NNNNNNNNXXXNNN     NNNXXXNNNNNNNN    mi",
"nht                 NNNNN                  =r",
"h21                 NNNNN                  -M",
",=1                 NNNNN                  5k",
"k0j                                        >u",
"-g<                                        i<",
";i:                                        2s",
"owO   XX                            XXX    >6",
"z31   XX                            XXX    v:",
"u8M   XX                            XXX    <i",
"<,,   XX                            XXX    #s",
"v=6   XX                            XXX    Md",
"z8s   XX                            XXX    zy",
"9a<   XX                            XXX    q$",
"@q>   XX                            XXX    a<",
"kj7   XX                            XXX    8%",
"inh   XX                            XXX    o$",
"59f   XX                            XXX    9j",
"=&s   NN   .......................  NNN    M*",
"j82   NN   .......................  NNN    h<",
"@84   NN   .......................  NNN    6a",
"4h$   NN   .......................  NNN    x1",
",71   NN   .......................  NNN    ;m",
"cr%   NN                            NNN    ><",
"b2l   NN                            NNN    be",
"O-o   NN                            NNN    p&",
"w+y   NNNNNNNNNNNNNNNNNNNNNNNNNNNNNNNNN    fa",
"bz+   NNNNNNNNNNNNNNNNNNNNNNNNNNNNNNNNN    l6",
"umo   NNNNNNNNNNNNNNNNNNNNNNNNNNNNNNNNN    hl",
"hqb   XX                            XXX    rl",
"p$s   XX                            XXX    0d",
">v,   XX                            XXX    6+"
};
