/* XPM */
static char *_6393_8cdaf2b7fbe46f559b9adc60863d7a4ab7186d54409841b61f17609f420e27be[] = {
/* columns rows colors chars-per-pixel */
"45 45 107 2 ",
"   c #0A112B",
".  c #FF8A26",
"X  c #9FAD41",
"o  c #A0AE42",
"O  c #A4B244",
"+  c #A9B745",
"@  c #ACBA46",
"#  c #A5B24B",
"$  c #A9B64B",
"%  c #ADBB4A",
"&  c #B0BE47",
"*  c #A7B350",
"=  c #A9B653",
"-  c #ADBA54",
";  c #ABB659",
":  c #AEBA5A",
">  c #B1BD54",
",  c #B2BD5C",
"<  c #AEB960",
"1  c #B2BC63",
"2  c #B4BD6B",
"3  c #B4C34B",
"4  c #B8C74C",
"5  c #BCCB4D",
"6  c #B5C253",
"7  c #B9C754",
"8  c #BDCC52",
"9  c #B6C25B",
"0  c #B9C55D",
"q  c #BDCB5B",
"w  c #B6C163",
"e  c #BAC564",
"r  c #BDCB63",
"t  c #B6C16D",
"y  c #BBC66C",
"u  c #BECA6B",
"i  c #B7C271",
"p  c #BAC473",
"a  c #BEC971",
"s  c #BDC67D",
"d  c #BFC97A",
"f  c #C1D04F",
"g  c #C4D452",
"h  c #C8D754",
"j  c #C7D853",
"k  c #CBDB55",
"l  c #C5D35A",
"z  c #C7D85B",
"x  c #CBDC5B",
"c  c #D0DF5C",
"v  c #C4D263",
"b  c #C8D664",
"n  c #CCDB63",
"m  c #C6D26D",
"M  c #C9D669",
"N  c #CCDA6C",
"B  c #D0DF65",
"V  c #D0DF68",
"C  c #C1CC74",
"Z  c #C2CC7B",
"A  c #C6D175",
"S  c #CAD574",
"D  c #CEDB73",
"F  c #C6D17C",
"G  c #CBD67C",
"H  c #CED97A",
"J  c #D1DF74",
"K  c #D1DD7D",
"L  c #D1E062",
"P  c #D2E16C",
"I  c #D3E174",
"U  c #D4E27C",
"Y  c #FFEF7D",
"T  c #BFC883",
"R  c #C2CB84",
"E  c #C5CD8C",
"W  c #C7D183",
"Q  c #CAD583",
"!  c #CFDA85",
"~  c #C7D18F",
"^  c #CBD48B",
"/  c #CED98B",
"(  c #D2DD84",
")  c #D2DD8B",
"_  c #C7CE92",
"`  c #CCD593",
"'  c #CDD59A",
"]  c #D2DB94",
"[  c #D5DD9B",
"{  c #D5E283",
"}  c #D9E686",
"|  c #D6E28B",
" . c #D9E58D",
".. c #D6E093",
"X. c #DAE593",
"o. c #DFEA94",
"O. c #D6E09C",
"+. c #DBE59B",
"@. c #DFE99D",
"#. c #CDD4A0",
"$. c #D4DCA1",
"%. c #D7DEAF",
"&. c #DCE4A1",
"*. c #DFE9A1",
"=. c #DBE2AB",
"-. c #E2ECA4",
";. c #E3ECAA",
/* pixels */
"@ j o @ @ + X 3 5 j 5 O & + 3 f k j & O 3 + 3 4 3 5 5 k 3 5 k o k f O k X 3 o f g O g O X ",
"3 5 f & k k @ @ 5 3 5 3 + O + O f & X 4 8 5 3 X 5 k j 5 3 5 3 O j O @ 3 j f & g 3 j f & 4 ",
"3 5 j o 3 g k + k @ + g & j 3 O 5 j X 4 4 4 + 3 3 8 k 5 @ & 5 k O 3 g O 3 O 3 f X k O & + ",
"k O k & f + 3 f 3 @ k j & O 4 5 5 X k & 8 + @ 8 5 5 3 5 3 5 5 3 5 j j @ 5 k k g 5 5 O 4 @ ",
"& 3 3 k 5 @ X 5 4 4 g X + k @ z & k 8 3 3 g 8 + 8 k k o 5 5 3 3 j 5 f k f O g @ X j f & & ",
"5 k f X & + 3 f @ 8 3 3 j 4 3 3 3 3 k x k 4 $ 3 + k 7 k 3 3 5 3 O g 3 @ f j k f f X 5 5 k ",
"3 + @ & 3 X 5 & 4 3 g O 4 3 3 3 3 j @ j $ $ 8 c 8 % 8 3 j 3 3 O 3 O o k k k X 3 f @ k O & ",
"j f f k + 5 3 5 X 5 5 8 @ 8 3 4 4 O 7 z l $ 6 = 6 # c q 8 $ k k + + 5 X O @ X k & k O 4 X ",
"O f f X 5 k 5 X @ 3 j + k O l 8 % 6 6 7 l 6 9 l = q = = x z 8 8 8 % + X 3 g j k f 5 k 5 4 ",
"X f & 4 4 5 3 5 5 3 5 j 7 8 # - n * n V b = r 9 V V 6 9 = 6 $ 8 # 4 g 8 X 4 k 5 + @ 3 @ O ",
"5 & + & 5 + 5 3 3 k 3 3 x % 6 - 7 w v P e w N I r 9 9 ; b q $ = x l @ l O g j j X 4 g 4 + ",
"O O f j + O 3 5 + 8 7 # 6 - * r 9 N u y D D y a t D w w N r 6 = - % 8 @ g x @ k g 3 + 4 4 ",
"5 4 f j + f + 3 O z 8 q 6 9 9 < u a a U p d ( p i K a I N w 9 9 - L z 4 X 5 3 + 3 3 5 O f ",
"& X & 5 f f 3 5 8 $ 3 = - r P S S H Q R W T T /  . .F d H m < ; v - x l l % 5 j f @ 3 k 5 ",
"k f 5 X & & & 5 3 x 9 q 9 N U t { d / ~ @.@.*.*.O.T / | K i a w , : l l 4 x 3 5 X O X O 5 ",
"f & & X & 5 + + # z 9 V u I i } / ~                   ~ T d F I e n > # l x k k 5 3 + + k ",
"@ O % 3 g h k $ z x 0 , I y F R ` +.                  [ ` ^ d a I N : 6 x # 3 X $ + + 3 j ",
"f 3 g % O j x k # b N N D F | ` &.=.                  =.' E | { D y r - q # k 7 8 @ X + 5 ",
"+ f @ h o 3 7 6 - = r D U Z T       Y Y Y Y Y Y Y Y Y       ^ | S w N - z x 7 k k 8 k 5 @ ",
"@ 5 + k @ $ x l l b e J p / E       . . . . . . . . .       E  .p S 9 r l q g z 5 3 g @ 5 ",
"X 5 X 3 x + 6 @ n P : K F X.~       . . . . . . . . .       O.^ } a I V - z z # g g X @ 3 ",
"j @ @ 3 + 6 c 6 = r r S G ^ *.      . . . . . . . . .       *.o.Q t u 9 n 7 3 + 8 k j j $ ",
"5 3 k 5 k @ 6 7 - : < H { ..-.      Y Y Y Y Y Y Y Y Y       &.^ W t w w q q q x % 4 X @ 5 ",
"@ @ @ g @ 6 @ % - N < A Z o.*.      Y Y Y Y Y Y Y Y Y       -.] s t w ; n 7 # 6 g 4 3 X 5 ",
"j O 3 3 3 o l 7 9 9 w y Q ^ *.      Y Y Y Y Y Y Y Y Y       ' R Q a J = * * $ 3 & + X k f ",
"j 3 5 5 3 5 x l 6 9 w y d ) +.      Y Y Y Y Y Y Y Y Y       ] / { i w 9 q 6 3 3 5 5 5 j 5 ",
"3 f @ k j # o n l r 9 t a W o.      Y Y Y Y Y Y Y Y Y       _ | U w P n q 8 8 5 & j @ 3 O ",
"o 3 + k O @ @ 6 7 ; b e U C ^ +.$.=.                  %.;.[ / { i a N 6 L q x 8 3 @ O f @ ",
"j g 3 g 3 5 4 8 # 7 N 1 A p ( / ' #.                  ;.O.~ s i u w P q 3 8 8 O 5 O k 3 O ",
"5 k f @ 8 3 O l - 7 * ; m 2 p R R &.                  ` ~ ) p S u M r 6 # 3 4 4 @ 3 @ X O ",
"3 3 f k O 5 g l 6 l 9 9 0 I D d ^ R ~ *.[ $.#.$.$.+.` o.Q { U D r r 6 8 q 3 k 4 j 5 @ 3 f ",
"O O f g O 8 o @ 3 $ $ 7 ; w D a G Z | ) ] ` ] ] o... .s i K m P 6 q r 6 7 3 @ 3 5 3 + k O ",
"f 3 @ @ 4 & X f j 3 % q : 9 P I I U p d | ! T ! d { d i 2 u v r L n x $ @ 4 8 k @ @ @ f @ ",
"o 3 3 3 @ 4 f j X 3 # x x - n N N I D i G U { H i S S N r r v = 9 l 8 3 8 g X 5 g 5 5 3 5 ",
"& f X 5 f f & + j O $ 8 8 > q : b M m r r I D a y w < r : b L z q 8 8 8 + O g j + g @ j 3 ",
"@ 3 & g & k f j 5 3 4 4 8 z l L V = 6 e ; r N r ; r ; 9 9 - # l % x x % 4 f 3 O @ k j + k ",
"j 5 X j j X k + 4 5 O % l % 6 $ 6 6 n z n r B r - r 6 7 9 z $ 8 c @ k O g @ + j 5 5 5 @ @ ",
"j & j f j & f & k g 8 k j g l 8 5 q 6 q l z 7 $ q L 7 z z % x 3 @ 3 k 8 3 5 o + @ + 3 k 4 ",
"X + X 3 j j k j 5 X j 4 8 g 5 O x q q 3 6 6 8 L 8 q j # z x O 7 g 3 5 8 4 + @ 3 o f 4 5 O ",
"3 X 5 O X f j k g + h O 3 5 @ x 3 k k k $ k 8 @ j 3 7 5 8 O X 4 8 g g 3 3 g 5 5 + O 5 f 5 ",
"k k X f 3 & k g 8 j O 3 k j @ k 5 k + + 5 O 4 3 + 3 5 3 + 5 5 f & 3 j f + & k & 3 5 & f & ",
"5 k X 5 O & & @ O 4 f 3 @ 3 j 3 j j 5 j X O O k 5 5 + X 4 & X & 5 @ X f 5 & k @ X 5 X f j ",
"f 4 k @ o j & 5 X f 3 @ k 4 5 o j j 3 o 3 g 3 O 5 3 & 3 @ @ 4 k k j 5 5 4 + & O f O o 5 j ",
"5 O f 5 5 X 3 & 4 X k 5 O O k + & j j j 5 k 5 3 X j X + X 5 & f @ 5 @ k X f & j o 3 & 3 5 ",
"@ k + 4 + g & 3 @ X 3 + 5 j f o 3 5 j j j X j X 5 3 3 O f 5 + & X f 5 f 4 X f k f j 4 & X "
};
