/* XPM */
static char *_618_36c2eca0b576c113fead67286d67617c388721cf4cc6876fe96c9dfe89cb65b7[] = {
/* columns rows colors chars-per-pixel */
"45 45 79 1 ",
"  c #0A112B",
". c #FF8A26",
"X c #9FAD41",
"o c #A0AE42",
"O c #A4B244",
"+ c #A9B645",
"@ c #ACBA46",
"# c #A5B34B",
"$ c #AAB64C",
"% c #ADBB4A",
"& c #B0BE47",
"* c #A7B350",
"= c #A9B553",
"- c #ADBA53",
"; c #ABB65A",
": c #AEBA5D",
"> c #AFBB60",
", c #B2BD63",
"< c #B4BD6C",
"1 c #B4C34B",
"2 c #B8C74D",
"3 c #BCCB4D",
"4 c #B5C352",
"5 c #B9C752",
"6 c #BDCC52",
"7 c #B6C25B",
"8 c #B8C65C",
"9 c #BCCA5A",
"0 c #B6C163",
"q c #BAC566",
"w c #BDCB62",
"e c #B6C16C",
"r c #B9C46B",
"t c #BDC96B",
"y c #B7C171",
"u c #BAC374",
"i c #BEC973",
"p c #BCC47B",
"a c #C1D04F",
"s c #C4D452",
"d c #C7D854",
"f c #CBDB55",
"g c #C8D75A",
"h c #C7D85D",
"j c #CBDC5B",
"k c #D0DF5C",
"l c #C1CF63",
"z c #C1CD6D",
"x c #C6D364",
"c c #C9D664",
"v c #CCDB64",
"b c #C5D16B",
"n c #C9D56B",
"m c #CDDB6A",
"M c #D0DF63",
"N c #D0DF6B",
"B c #C2CD73",
"V c #C2CC7B",
"C c #C5D172",
"Z c #CBD675",
"A c #CDDA72",
"S c #C6D17C",
"D c #CBD67D",
"F c #CEDA7A",
"G c #D0DE74",
"H c #D2DF7E",
"J c #D2E166",
"K c #D3E16B",
"L c #D3E175",
"P c #D5E27B",
"I c #FFEF7D",
"U c #C6CE86",
"Y c #C7D280",
"T c #CAD583",
"R c #CFDA81",
"E c #D3DF85",
"W c #D4E182",
"Q c #D9E684",
"! c #D9E489",
/* pixels */
"@do@@+X13d3O&@1afd&X1111133f13fXf3+fX&X3dOa+X",
"13a&ff@@3131+O@Oa&X2631X3fd3231Odo&&dd&d1da@3",
"13do2af@f@Od&d1X3sX321+113f3+&3fO23+&O23XfO&O",
"fOf&a@&a1@ff&O233Xf&6O13131313313df&3ffd33O3@",
"&1&f3&X2113X+f16&f31166+3ffX3311f3df3Od&Xda&&",
"3faX&O2a16216211&1fff2+1+d2d1132O3&@adf3aXa3f",
"1@&&1X3&216X31111d1d1+6j6131f11O2XOfffX2a@f@&",
"aaaf+312O33316123O1d6O1*1Xk66Ofd+O3XO@Xf&fO&X",
"OaaX3f3O@@f@do66%%159149#9##jd6251Oo1dffa3f31",
"Oa&223&3313d16#1j#hvh#94Mh*4#4#6+566o2f3+@&&O",
"3&O&3+321f11f-4*44xM74xM774#69#%h6@6o6f6X1s2+",
"OOafOO23O32O1*#9-v77xc7w4w77v84#%%6@df1ds1+22",
"33ad@3O&of56444*wq7m:qn>>c0Nv74*4kd2X11O2&3+s",
"@X&3a3136+1#*7JwlnzereeiFLwwcw==9$j6313d3&&f3",
"fa3X1&&31k464wK7NeCiHQWWDyiLt:w7-$6d2f&3O+OO3",
"a&&X&3++#64M9m7LCe         yrrwv7j-#dfff3&++f",
"@+@16dd+dj4-v0qruE         VBBq0Jw44jo2X+OO1s",
"s161Odkd#ghvmtABWT         Tp<GNc79#9Oj261X+2",
"Os@dO124##9cK0<   IIIIIIIII   BAx7c#fj2df6f31",
"@3@d@Of69h7m>Cy   IIIIIIIII   <P0w=9966f21613",
"X1X1fO2$jk;mtPy   IIIIIIIII   TBLwJv+h6O3sX@1",
"s111+1k4#99wbtW   .........   EPi;w1j52+3fdfO",
"21f2f+14$*=xAFQ   .........   Etr>7=996k11O@3",
"@+13$2$%%v=wqPQ   .........   !Z07;=d2#2321X6",
"fO111of1-4-:bBW   IIIIIIIII   i<twv####+&OXfa",
"s13212dd5-770ZF   IIIIIIIII   SBK7;44411a33d3",
"13@fdOojs9-:0tP   IIIIIIIII   eLm;Mh6663&a&1X",
"X2@fO@$15#h7K0BWYT         U!DCA7ww4j9f61@Xa&",
"dd131216O6h;w0ACup         !Tu,>w4M4Od3OaXf1O",
"3f3161@6$5##w;>r<W         irA>x9991O&22@1@XO",
"11sfO26d194%4Nc0b<uWYTpYTRiQbAmc7946dOf2f3@1a",
"OOs6O6X11$$7*4c0bqFZFiBCPFG,>mwM199121O1a1OfO",
"31&@2&X3d@12*4cvmJ0tGnri0G0:;999jkd+112f1+@3@",
"O1&&&2ddX1Ofj1MhcMw0wmKn>wwx989$965133X3s2313",
"13O3a3&@d++65144hcw9wvvw77-w*9Md6666+O3d@3@d1",
"&&&d&faa3&214f9fj#44*8h8*9*%44O6@fd12s1O1fd+f",
"d3XafOf@33X1611+14hwh9j6*9454f+6j@fod@@f333&@",
"d&dad&a&f63df6662616dh6O6k26h%k1@1f313XO&+&f2",
"X+X1ddff3Xf2366+f661112f666+6fO261261@+1O323O",
"1X3OXaaf31dO121j1fjfOhs+62636+o16dd11d33+O3a3",
"fdXd&&dd3dO1f31f3fO@3X21+131O3a3&&a3@&f&22&a1",
"3fX3+1&@O23111d1dd2fXXOf33+X2&X&a&Oaa&f@X3O3d",
"a1f&Xd&3X311f13Xdd1X&d@O31&1@@3ffaaa1O&OaOo3a",
"3O333X&&2Xf3OOf+&fafdda1XdX+X2&a&3@fXa&fO&&13",
"@f@1+d&&@X1+3d3+23fdfXdX3@&+aaO&Xa3a1Xafad&1O"
};
