/* XPM */
static char *_5626_0381cff843b39767a37a6348d0815dcff7b4cbfb7f2c330bdbcaab4dd98d6667[] = {
/* columns rows colors chars-per-pixel */
"45 45 64 1 ",
"  c #0A112B",
". c #FF8A26",
"X c #9FAD41",
"o c #A0AE41",
"O c #A4B244",
"+ c #A9B745",
"@ c #ACBA46",
"# c #A5B34A",
"$ c #A9B64B",
"% c #ADBB4A",
"& c #B0BE47",
"* c #B1BF4A",
"= c #A7B351",
"- c #AAB655",
"; c #ADBA53",
": c #ACB75C",
"> c #AEB95C",
", c #B1BE53",
"< c #B2BE5B",
"1 c #AFBA61",
"2 c #B2BC62",
"3 c #B3BC68",
"4 c #B4C34A",
"5 c #B8C74D",
"6 c #BCCB4D",
"7 c #B5C253",
"8 c #B8C754",
"9 c #BDCB53",
"0 c #B6C25B",
"q c #B9C65D",
"w c #BDCB5B",
"e c #B6C263",
"r c #B9C564",
"t c #BDCA63",
"y c #B7C26A",
"u c #B9C469",
"i c #BECB6B",
"p c #B9C471",
"a c #BDC871",
"s c #C1D04F",
"d c #C4D452",
"f c #C7D854",
"g c #CBDB55",
"h c #C5D45B",
"j c #C7D85D",
"k c #CCDC5B",
"l c #C0CE65",
"z c #C0CC6E",
"x c #C5D462",
"c c #C9D765",
"v c #CCDB63",
"b c #C5D16D",
"n c #C9D56C",
"m c #CCDA6A",
"M c #D0DF6C",
"N c #C4CF71",
"B c #CAD670",
"V c #CEDB72",
"C c #D0DE73",
"Z c #D1E062",
"A c #D3E26D",
"S c #D4E274",
"D c #D3E178",
"F c #FFEF7D",
/* pixels */
"@fo@@+X46f6O&@4sgs&O4444@66g@5gXg6OgX&oddOs@X",
"46s&gg@@5464@O@Os4X6664X6gf66f&OgO&&fg@f4fs@6",
"46fo4dg+g@@6&f4os6X655O546g6@@6gO46O&O56XgO&+",
"gOg&s+4s44gf&X566og@6O496d@6&6666gg46ggd56O5@",
"&44g6@X6546X+f49&g64469O6gfX6d&&g66g6@64Xgs&&",
"6gsX&+4s4964f544&4ggg5O4+f5f&466@64@6gg6sXs6g",
"4@@&4X6&549X4444&f@f+45g6+54f44O5XOgggX4s@gO&",
"sssg+646X66646456O5f9+4O4Ogf6OffOO6XX4Xg&gO4X",
"OssX6gsX@@g@gX99@%45w459#9##kf9564OO49gg66g64",
"Os&54s&6s&6649O4j#fk9#97kk#7#4#9O596O6g6@@4&O",
"6@+@6Os44g54j@4#57wZ77wZ774owwO4f946Xgg6X466@",
"O+sg@O46O66O4;X8%j77jt;77w-7w74o$+549g4ff4@54",
"65sf@6O&Xg89447#080c-0t-;t0vj74#4kw6X64O4&6Of",
"@X@6s6466O4##7Zwwxt0e0etmMq0jw=#9#k96@6f6&&g6",
"gs6O4&&64g597wZ-M>teCACCietmt-87;#965g45OOOO6",
"s&&X&sOOO94k8j7Mt1         :e0qv4j449ggg6&@@g",
"@++4sdf+fk4$k<02en         iitq>Aj44wO4X+OO46",
"s4s4Ofgh#fhccqctCN         N11mvw89#9Og564X+6",
"+s@fO454##7jZ<>   FFFFFFFFF   tcw-w#fj5gg6g64",
"@6+f++kd9h,k>l1   FFFFFFFFF   1A0w$9999g64646",
"X5X4gO5+gk=cqM2   FFFFFFFFF   brAwkj4wfO9dX44",
"f@@4O5k4#98wleV   FFFFFFFFF   CCi=w4j54O6gg6O",
"64g6g+74#$$tcmD   .........   Vee=;4699g45X45",
"@@@s+5+$%j$w0AD   .........   Sn7==#w4#4654X6",
"g+444of5*,%>ttC   .........   u:qqj##oO4&OXgs",
"d46644fd7;;7<xn   FFFFFFFFF   itm7=48744s66f6",
"464gfOokd8;-0qA   FFFFFFFFF   1mw7Zk8965&s&4O",
"X4+fO@+44+h;v<tVza         pDbbc7ww#k9f6&&Xs@",
"dd4d4549O8f$q,ct33         Vbe:-77k5Od6O6og&O",
"6gs@64Od+7##w=><>V         r<c>w8ww4O&54&4@XO",
"44dgO69d4d7%7vx<t>eViNyNBBrSlcvj8946fOg5fs@4s",
"+O6dO6o4%++7O,j0w0cnnrrtCnm;-vwv$89464@&s&@gO",
"64&@4&X6f&@6+;ZZjZ70ct0t:m0==ww8ZgjO446g4+@6&",
"O4&4&4sgX4Ogg@gjjZt7tvZt-wjt056#596566X6d4646",
"&6X66f&@fO@6845#wjw77vcw77#9#wZf6666OOff@64f&",
"&4&f4g666&445g9kj#47#9j5#8#$4@O9%jf466&O4fd+g",
"f6OsfOg@55X4944o44jff9g6#8484jO9g+gOd+@f666&&",
"f&f6f&f&gd6ggdf559$99f5O9Z59g+g4+4g656XO&+&g5",
"X+X4ffgg6Xg5698Of994445g59fO9gO594665+44O656O",
"4X6OO6sg6+fO56+g4gggOkd+94569+X5ddd45956+O666",
"gfXf&@ffdgO4ff&gsgO@6X54@&64O6s6&4f4+&f464&s&",
"6gX6O4&@O564&4f&sf6gXXOg66OX4&X&s&Xss&f&X6X6f",
"s4g@Og&6X644g46Xff4X&s&O64&4&@6ggsss4+4Xs@X6f",
"sO666X4&5Xg6OOf@&gsgfgs&XgX@X4&s@6@fOs&gO&&46",
"+g+4@s&4@X4+6fsO44gggXgX6@&@dsO&Xs6s6X6g6f44X"
};
