/* XPM */
static char *_8931_a06e8e5919da7be572dbab309025bfda18dcbe03173d1d0fe936f6b5795b1d5f[] = {
/* columns rows colors chars-per-pixel */
"45 45 95 2 ",
"   c #0A112B",
".  c #FF8A26",
"X  c #9FAD41",
"o  c #A0AE42",
"O  c #A4B244",
"+  c #A9B645",
"@  c #ACBA46",
"#  c #A5B24A",
"$  c #A9B64C",
"%  c #ADBB4A",
"&  c #B0BE47",
"*  c #A7B451",
"=  c #A9B553",
"-  c #ADBA53",
";  c #ABB75A",
":  c #AEBA5A",
">  c #B2BE5A",
",  c #AEB961",
"<  c #B2BD65",
"1  c #B3BE6A",
"2  c #B4C34B",
"3  c #B8C74C",
"4  c #BCCB4D",
"5  c #B5C253",
"6  c #B8C752",
"7  c #BDCB52",
"8  c #B6C15C",
"9  c #B9C55D",
"0  c #BDCB5C",
"q  c #B5C163",
"w  c #B9C563",
"e  c #BCCA63",
"r  c #B5C06B",
"t  c #BAC56B",
"y  c #BFCA6C",
"u  c #B7C171",
"i  c #BBC574",
"p  c #BEC973",
"a  c #BCC57C",
"s  c #BEC87C",
"d  c #C1D04F",
"f  c #C4D452",
"g  c #C7D854",
"h  c #CADB55",
"j  c #C4D35B",
"k  c #C7D85B",
"l  c #CCDC5B",
"z  c #CFE05E",
"x  c #C0CD65",
"c  c #C1CD6A",
"v  c #C5D264",
"b  c #C8D763",
"n  c #CDDC63",
"m  c #C6D26C",
"M  c #CAD66C",
"N  c #CDDB6C",
"B  c #D0DF63",
"V  c #D1DF6E",
"C  c #C2CD74",
"Z  c #C3CC7D",
"A  c #C6D275",
"S  c #CAD673",
"D  c #CEDB73",
"F  c #C7D27C",
"G  c #CAD57C",
"H  c #CEDB7B",
"J  c #D0DE74",
"K  c #D1DD7C",
"L  c #D1E067",
"P  c #D2E16B",
"I  c #D3E174",
"U  c #D4E17B",
"Y  c #D8E57D",
"T  c #FFEF7D",
"R  c #BFC781",
"E  c #C3CC81",
"W  c #C4CB8C",
"Q  c #C6D084",
"!  c #C9D482",
"~  c #C7D18C",
"^  c #CCD68B",
"/  c #CFDA8B",
"(  c #D2DD84",
")  c #D2DC8C",
"_  c #CFD992",
"`  c #CED59C",
"'  c #D3DD93",
"]  c #D0D79A",
"[  c #D4DC98",
"{  c #D5E282",
"}  c #D7E38B",
"|  c #DAE68A",
" . c #DAE492",
".. c #DEE994",
"X. c #DEE89A",
/* pixels */
"@ g O @ @ + X 2 4 g 4 X 2 + 2 d h g & X 2 2 2 3 2 4 4 h & 3 h X h d O g X & O d f O f O X ",
"2 4 d @ g h @ & 3 3 4 3 + O @ O d & X 3 7 7 + X 4 z h 4 4 f & O g X & & g g & d 2 f d & 3 ",
"2 4 g O 2 g h + h @ O g 2 g 2 X 4 f X 4 3 3 + 2 @ 4 h 4 + & 4 h O 3 f O & + 3 d X h O & @ ",
"h O h & d + & d 2 @ h g & X 3 4 4 X h & 3 O 2 4 4 f + 4 2 4 4 3 4 g g & 4 h h f 3 d O 3 @ ",
"& 3 & h 4 & X 3 2 2 4 O O z 2 7 2 h 4 2 2 4 7 + 3 z k X 4 f 2 2 g 4 f h d O d & X g d & & ",
"3 h d X & O 3 d 2 4 3 2 7 3 2 2 & 2 g z z 3 + 2 + k 3 g & 2 4 2 O d 2 + d g g d d X d 3 h ",
"2 @ & & 2 X 4 & 3 2 7 O 4 2 2 2 2 g 2 k O $ 3 z 4 2 3 2 g 2 2 O 2 O X h h h X 2 d & g @ & ",
"d d d h + 4 2 3 O 4 4 4 2 4 2 3 4 O 2 g 7 2 5 $ 2 O z g 7 + g g + + 4 X O & X h & h O & X ",
"O d d X 4 h 4 o @ 2 g 2 z X 7 7 % % 5 6 0 5 6 0 * 0 * # z 0 7 4 6 2 O o 2 f f h d 4 h 4 2 ",
"O d & 3 4 4 & 4 4 2 4 4 2 7 O 5 n * k B k * 0 8 L z 5 5 * 5 + 7 O 6 j 4 o 4 z 4 + + 2 @ O ",
"4 & O & 4 + 4 2 2 z 2 2 7 5 5 $ 9 5 v L w 8 M P 9 8 8 * 0 0 * % l 7 % f o f g f X 3 f 3 + ",
"O O d h O O 4 4 O 7 6 O 5 5 * 0 : P w w M N q e q M q 8 n 0 5 * % % 7 % f h @ z f 2 @ 3 2 ",
"4 3 d g @ d O 2 X z 7 0 5 5 8 ; e e e H q p D r q D t J N 8 8 - 5 l k 3 X 3 2 + 2 @ 4 O f ",
"& X & 3 d d 2 4 7 O $ # = 0 P y m S A p s i a F ( { p y D y ; - j $ l 0 7 2 3 h d & & h 4 ",
"h d 3 O & & & 4 + z 5 0 8 N V q U i ! E } .. . ./ s G { A q e q : = j j 3 z 2 4 X + O + 4 ",
"d & & X & 4 O @ $ z 5 n e V q Y F s                   s s p y V 9 n % + 7 z h h 4 & + + h ",
"@ O @ 2 7 g g $ k l 8 - N e p p E }                   / Q F p w V b - 5 l o 2 X + + O 2 f ",
"f 2 f 2 O g l g # k n N D p H Q  .[                   ' W s { U N e 0 - 0 # z 7 4 @ o + 4 ",
"O d % f O 2 3 5 % * 9 N I p a       | T T T T T T T T       Z H S , n * k z 3 g z 7 h 4 2 ",
"@ 7 @ h @ O h j 0 b w N 1 H s       T T T T T T T T T       R { q M ; 0 0 7 7 k 3 2 7 2 4 ",
"X 3 X 2 l O 6 $ l n : D C { R       . . . . . . . . .       ) F { y P V 5 7 g O d d o @ 2 ",
"g @ @ 2 O 2 z 3 * j e c G Z  .      . . . . . . . . .        .} G , e 5 n 6 5 @ 4 g g g O ",
"4 2 z 4 g % 5 5 * : : M H { X.      . . . . . . . . .        .E p < q ; 0 7 7 z 2 2 X @ 4 ",
"@ @ @ d @ 3 % % - b ; m y | ..      T T T T T T T T T       X.( u q 8 ; k 6 # 6 f 3 2 o 7 ",
"g O 2 2 2 o g 3 5 8 8 q A Q  .      T T T T T T T T T       ~ i p y V * * * * + & @ X h d ",
"g 2 d 4 2 3 g j 5 : 8 w t H }       T T T T T T T T T       ^ F U t 8 - 0 2 2 2 4 4 4 g 4 ",
"2 4 & h g o X l j 0 > < t p |       T T T T T T T T T       a { D , V n 7 7 7 4 & g & & O ",
"X 3 + g O % % 5 6 $ b w J i F } _ ]                   ` X./ G H q M 0 5 z 0 k 4 2 @ O d @ ",
"g d 2 g 2 3 2 6 # 6 b : e t H ! W W                    .) E i 1 e 0 L 6 + 7 4 O 4 O h & O ",
"4 h d @ 7 3 # g % 6 * = v , r s a }                   Q s K r c e e 0 5 O 2 3 3 @ 2 & X O ",
"2 2 d h O 4 f f 5 j 6 > 8 I N t F a E  .^ _ ~ _ ' ) Q | F J I M 8 e 5 7 k 2 h 4 g 4 @ 2 d ",
"O O 7 f O 7 o % % $ $ 6 * 8 N w A p K ( ( E Q ^ } { { u 1 J x P 5 0 0 5 2 2 O 2 f 2 O h O ",
"f 2 @ @ 3 & X 4 g 2 % 0 - 5 N V D I r p K H s A u K y , , e v 0 z l k $ @ 4 4 z @ @ @ d @ ",
"X 2 & 2 & 4 4 h X 2 O g l - n n N V N q m J I M r m m N e 9 0 - 5 j 7 2 4 4 X 7 f 3 4 2 4 ",
"& 4 O 4 f 4 & @ g O + 7 6 2 6 - b b e e w N N y w w ; e = b z k 7 7 7 4 + O f h @ d & g & ",
"@ 2 & g & h 4 d 4 2 3 3 6 z 0 z z * 5 8 = 0 N 9 = 0 = - 5 - # j % l k 2 4 4 2 O @ h f + h ",
"g 4 O d h O h & 3 3 o 2 7 2 2 # 5 5 k z k 0 z 0 - 0 5 6 5 z O 7 l $ g O f @ + g 4 4 4 & & ",
"g & g 4 d & d & h g 7 g z f g 6 3 7 % 0 0 k 0 O 0 z 7 0 l % z 2 @ 2 z 4 2 4 X + & + & h 3 ",
"X O X 3 g g h h 4 o g 3 4 f 6 O z 7 g + 2 6 3 z 7 7 g O 7 z X 3 7 2 4 4 3 + @ 2 O 4 3 4 O ",
"3 X 4 O O d d h 7 + g O 2 7 + h @ z k z O z 4 2 7 3 6 4 0 O X 3 f d f 2 2 f 4 4 + O 4 d 4 ",
"h g X f & & h f f g + 2 h h @ h 4 h O @ 4 X 3 2 O 2 4 2 O 4 4 d & & d 4 + & h & 3 3 & d & ",
"d h X 4 O & & & O 3 4 2 @ 2 f 2 g h 3 h X O + h 4 4 @ o 3 & O & d & O d d & h & X 3 O 4 g ",
"4 3 h @ O h @ 4 X d 2 @ h 2 4 o h g & O 2 4 2 O 4 2 & 2 @ @ 3 h h d d 4 3 O 2 X d @ X 3 g ",
"4 X 4 4 4 X 2 & 3 o h 4 O + h + & h 4 h g g 4 2 X g X + X 3 & d @ d @ h O 4 & g O & & 2 4 ",
"& h @ 3 + f & 2 @ X 3 + 4 g d X 2 3 h g h X g X 4 @ 2 @ 4 4 @ & X d 4 d 3 X d h d g & & O "
};
