/* XPM */
static char *_7066_a1f0e88f5b3adf2394b7cdba0fe5cc608cf87a4c1289edec2c8b8d992a136203[] = {
/* columns rows colors chars-per-pixel */
"45 45 51 1 ",
"  c #0A112B",
". c #FF8A26",
"X c #9FAD41",
"o c #A0AE41",
"O c #A3AF48",
"+ c #A4B244",
"@ c #A9B745",
"# c #ACBA46",
"$ c #A5B34B",
"% c #A9B64C",
"& c #ADBB4A",
"* c #B0BE47",
"= c #B1BE4B",
"- c #A7B352",
"; c #A9B553",
": c #ADBA53",
"> c #ABB659",
", c #AEBA59",
"< c #B1BD53",
"1 c #B3BF5A",
"2 c #B4C34A",
"3 c #B8C74C",
"4 c #BCCB4D",
"5 c #B5C353",
"6 c #B9C752",
"7 c #BDCB52",
"8 c #B6C35A",
"9 c #B8C65B",
"0 c #BCCA5A",
"q c #B6C262",
"w c #BCCA61",
"e c #C1D04F",
"r c #C4D452",
"t c #C8D754",
"y c #C7D853",
"u c #CBDB55",
"i c #C4D45B",
"p c #C8D75B",
"a c #C7D859",
"s c #CBDB5B",
"d c #D0DF5C",
"f c #C5D362",
"g c #C9D663",
"h c #CCDB64",
"j c #C9D768",
"k c #CEDD6A",
"l c #D0DF60",
"z c #D0DF69",
"x c #D1E066",
"c c #D3E26A",
"v c #FFEF7D",
/* pixels */
"#yo##@X24y4o2@2eue*+2@23@4ru#3uXu4@uX*Xey+e#X",
"24e*uu##4242@+#+e2X4y42Xruu43r*+y+**ey*e2ye#4",
"24yo3ru@u#@y*y2o4eX332@2#4u4#*4u+2r@2@2eou+*+",
"u+u*e@2e2#uu*o444Xu*4+244r@4*4434yy*4uuy44+2#",
"*2*u4#X4224o@y272u4*2r4+4uuX4r*2u44u4+4*Xye**",
"4ueX*+3e24327322**uuy3@2+u2y#343@42#yuu4eXeey",
"2##*2X4#327X4222*y#y@@4u4232u**+3+XuuuX3e#u+*",
"reeu#424+44424234o3yr+2+#Xur4+uy++3X+*ou*u+2X",
"+eeo4ueX@@u@7+74&@227&27+4$$u77432+X2yuyr4y42",
"oe*344*3y*4y23+2u$rs7+72su$2$2+7+374X4d4@#2#+",
"4###4@42*u*2u2%+227s620d3%2O77+2u427Xyy7X2r3@",
"+@ey++44+43+2%+6:a55a0%5&a$2a6@X@@327u2ye2#32",
"44ye*4+*ou47222O555a-2w-$05s722O2sy3X3*@3*4+y",
"#X#4e424y+@+$2s0070:5-:9hh50s0O$0+a74*4r4**u4",
"ue4o2*#4+u24%0d$g:08hzkjw59w0$52++443u24X@+@3",
"e**X*e+@+y2u7s2h0>         -550w2y224uuu4*@@u",
"#+#2ryy$ta=%s<<,,w         w995:xa@2yX2X22X2y",
"r2r2+yur+ttap8i9hw         w>;hh757$7+u34+X+3",
"+e#ro232$+5il:;   vvvvvvvvv   800@7+yu2yu7y42",
"#4#u@+ur7i2a;0;   vvvvvvvvv   ;x50%7777y42424",
"X4X2u+3+yu$i5k;   vvvvvvvvv   w0x6as+yy+74X22",
"y##2+2u3$75701h   vvvvvvvvv   hz0$6%u22+4uy4+",
"42u4t#23$$$ipgz   vvvvvvvvv   j89$%$777s22+23",
"###e#3$@@iX7<cz   .........   cw:%$$y2+2442+4",
"u+222or2&:&%00z   .........   8-96a++$+2*+Xue",
"r24422yr2&&<:wf   .........   q9s5$%62&2e44y4",
"24#uyoou77&%55x   vvvvvvvvv   ;z0$sa6743#r*3X",
"o3#u+##22$i&s:9gqq         8zw0a%7a@urr4*#o4*",
"rr2r2324+6y$5:i0,>         jw5--2&s6Xye+eou*+",
"4ur#42+r@3+O7$;<-h         8,f%05r7&X#23#2#X+",
"22ru+47r275&&li:9-,kww,wwf8x0psi27#ey+u3r4#2r",
"++4e+7X2&@+2$&a:05fif880kgf:$a0d@2y24*#*e2#u+",
"r2##3*X4y*#4@2uaas55ww59$a5$O676uua+224u2+#4*",
"o2*2#2eyX2Xyu@uaal020sl0-000657+674244X443424",
"*eo4ye*@y+@44&3@y7755aa622@0+7dy6444#+4y242y2",
"#2*y*u4y4*333u7ss+$5+6a5X6+@@2+72uy2442+2y4#u",
"y4+eu+u@32X272&+22yyy3u4$6232a+472u+y2#y444##",
"y*eee*e*ur4uury327@7ru3X7s3772u2+2u423+#*@2u3",
"X+X3uuuu4ou3474oy7r#223u64r+7u+472472###+444+",
"4X3++4eu4@y@27@s2uyu+y4#72447+X24y422y34@+444",
"uyXy**uryy+2yy*ueu+#4X32@*42o4e4*2e2#*y*42*r*",
"4uX4+***o342#*y*ey4yXX+u44#o4*X*e*+er*y*X4Xey",
"e2u#+u*4o432y24+yy2o*e*+4***##4uuere2+2oe#X4y",
"eo444X**3ou4@@u@2yeyyue2XuX@X3*e#4#y+e*y+***4",
"#u@3+r*2*X2@4u4+24uyuXyX4**@ee+*oe4e2Xeuey2*X"
};
