/* XPM */
static char *_6061_7f81a29c9c502d55b764f09f2af9dd8dbeaf586c235129d38873115dcc41e985[] = {
/* columns rows colors chars-per-pixel */
"45 45 198 2 ",
"   c #0A0204",
".  c #180308",
"X  c #0D0615",
"o  c #22040E",
"O  c #270510",
"+  c #2D0613",
"@  c #310616",
"#  c #360719",
"$  c #3C091C",
"%  c #0A0D24",
"&  c #0A1027",
"*  c #0A112B",
"=  c #16182E",
"-  c #101731",
";  c #151933",
":  c #2D1B25",
">  c #351F2E",
",  c #1E2037",
"<  c #262635",
"1  c #3B2738",
"2  c #2A3232",
"3  c #343432",
"4  c #410B1F",
"5  c #450C21",
"6  c #480E24",
"7  c #4B1226",
"8  c #4D142A",
"9  c #4F182C",
"0  c #511A2E",
"q  c #531E31",
"w  c #4A2C3B",
"e  c #582335",
"r  c #5E2C3D",
"t  c #49323B",
"y  c #5B313E",
"u  c #602D3F",
"i  c #3D4534",
"p  c #434D36",
"a  c #4A5438",
"s  c #545E39",
"d  c #5B653B",
"f  c #65703E",
"g  c #68703E",
"h  c #1A2441",
"j  c #053C53",
"k  c #2E3049",
"l  c #2D3455",
"z  c #353D5F",
"x  c #582E41",
"c  c #4A3947",
"v  c #583948",
"b  c #643344",
"n  c #683948",
"m  c #723C4B",
"M  c #633D56",
"N  c #344558",
"B  c #355F7D",
"V  c #59454D",
"C  c #684556",
"Z  c #724454",
"A  c #774C5B",
"S  c #79515F",
"D  c #6A7640",
"F  c #494E62",
"G  c #774A69",
"H  c #665565",
"J  c #7D5463",
"K  c #A71827",
"L  c #C41E30",
"P  c #CE2033",
"I  c #DA2438",
"U  c #DF3244",
"Y  c #E2394B",
"T  c #86454C",
"R  c #924D4F",
"E  c #934653",
"W  c #9F5252",
"Q  c #A24C57",
"!  c #A55858",
"~  c #B45C58",
"^  c #875A68",
"/  c #875477",
"(  c #87616E",
")  c #956D68",
"_  c #9A726A",
"`  c #896774",
"'  c #936976",
"]  c #936B7B",
"[  c #98747C",
"{  c #AE6B6B",
"}  c #B26668",
"|  c #A4786F",
" . c #E54A5A",
".. c #C9655F",
"X. c #E95766",
"o. c #D06760",
"O. c #D56A62",
"+. c #D77369",
"@. c #ED6976",
"#. c #8B9745",
"$. c #9FAD41",
"%. c #A0AE41",
"&. c #A4B243",
"*. c #A9B745",
"=. c #ACBA46",
"-. c #A8B649",
";. c #AFBD48",
":. c #B0BE47",
">. c #B1BF49",
",. c #B98678",
"<. c #C48D7D",
"1. c #E68C7A",
"2. c #B4C349",
"3. c #B8C74B",
"4. c #BCCB4D",
"5. c #C0CF4F",
"6. c #C1D04F",
"7. c #C4D451",
"8. c #C7D853",
"9. c #CBDC54",
"0. c #3A6887",
"q. c #386988",
"w. c #337390",
"e. c #996787",
"r. c #9B7481",
"t. c #9A7984",
"y. c #A27285",
"u. c #A57789",
"i. c #A8768A",
"p. c #A57793",
"a. c #B17D92",
"s. c #00A6BA",
"d. c #9B8A93",
"f. c #AD8286",
"g. c #A1828C",
"h. c #B7868C",
"j. c #A88996",
"k. c #B78196",
"l. c #BB8D93",
"z. c #BA8399",
"x. c #AE939C",
"c. c #B0969F",
"v. c #9898A4",
"b. c #B088A2",
"n. c #B59AA6",
"m. c #BAA3AB",
"M. c #BDA8AE",
"N. c #A7AAB6",
"B. c #BEA9B0",
"V. c #CC9381",
"C. c #C99191",
"Z. c #C49399",
"A. c #CA989E",
"S. c #F69983",
"D. c #FBA78C",
"F. c #F4AF93",
"G. c #FEB195",
"H. c #FDB698",
"J. c #C48CA3",
"K. c #CA99A4",
"L. c #C995AA",
"P. c #CC9AAE",
"I. c #D29FA5",
"U. c #CE9DB0",
"Y. c #D09FB2",
"T. c #D4A0A7",
"R. c #D7A3A9",
"E. c #DCA6AC",
"W. c #DEA9AE",
"Q. c #C5A8B3",
"!. c #D3A7B8",
"~. c #C6B3B9",
"^. c #D6B0BF",
"/. c #E3ADB2",
"(. c #E8B1B6",
"). c #ECB3BA",
"_. c #F0B6BD",
"`. c #F4B8BF",
"'. c #FFC09F",
"]. c #FFC3A1",
"[. c #FFCBB4",
"{. c #DAB4C3",
"}. c #D9B5C4",
"|. c #DEBCCA",
" X c #F5BCC3",
".X c #D2C9D2",
"XX c #F6C1C7",
"oX c #F7C4CA",
"OX c #F7CACF",
"+X c #F8C9CE",
"@X c #E4C8D4",
"#X c #EACFD3",
"$X c #F9CED2",
"%X c #F9D2D6",
"&X c #CEDBE5",
"*X c #DDE1E9",
"=X c #E1E0E7",
"-X c #E0E1E9",
/* pixels */
"=.8.&.=.=.*.%.2.4.8.4.&.2.*.2.7.9.7.=.&.=.*.2.4.=.8.6.9.=.3.8.&.9.4.*.8.$.2.%.7.7.&.7.*.%.",
"2.4.6.=.8.9.=.=.4.2.4.2.*.&.*.*.4.2.$.4.8.4.;.%.5.9.8.4.4.7.:.&.9.&.=.2.7.8.=.7.2.7.4.=.3.",
"2.4.8.&.2.8.9.=.9.=.*.8.;.7.2.%.4.7.$.3.4.2.&.2.*.4.9.4.=.:.4.9.&.2.7.*.2.&.2.7.&.9.*.2.*.",
"9.&.9.:.6.=.=.6.2.=.9.8.2.$.4.4.4.%.9.;.4.*.=.4.4.8.*.4.>.4.4.2.4.7.8.=.4.9.9.8.3.3.&.2.-.",
"2.2.2.9.4.=.%.4.4.2.7.&.-.8.5 $ 5 e n n n x Z ` S C ( d.j.c.=.2.9.4.7.9.4.*.7.=.%.8.7.2.2.",
"4.9.4.%.=.*.2.6.-.7.2.:.8.4.# 5 5 e e 7 q b ^ S A ^ ^ c.M.M.4.4.&.6.2.*.7.7.9.7.4.%.4.4.8.",
"2.*.=.2.2.&.4.:.3.>.7.%.2.2.@ $ 8 e e 9 7 b Z r S ^ n [ n.B.2.&.2.&.$.9.9.9.$.2.8.=.9.&.=.",
"6.6.4.9.*.4.2.4.$.4.4.O + $ i.z. X X X X`.XXXX`.XX%X$X}.@X@XB.Q.&.*.3.%.&.=.%.9.;.9.&.2.%.",
"*.6.6.&.4.9.4.%.*.*.9.. @ $ J.a. XXX).). XoXXXW._.oX$X|.^.|.M.~.4.2.%.%.2.8.9.8.6.4.9.4.3.",
"&.4.2.2.3.4.2.3.8..   V ( J. XE.`.OX/.k.E.XXOX(.A.W. X+X$X%X#X#XM.m.B.4.%.3.9.4.*.=.2.=.&.",
"4.=.*.*.4.*.4.2.:.    w A z. Xl.K.XX Xf.u.`.OX XR.T.R.(.oX$X|.@Xm.~.~.6.%.4.9.9.%.2.8.2.&.",
"*.&.6.9.*.&.3.4.&.    c J ] /.Z.f.). X[.R.R.oXoXT./.XXZ. X$X}.|.x.B.~.=.7.9.*.9.8.2.=.3.3.",
"3.4.8.7.=.4.%.2.%.    S ' U.$X XT.T.(. X/.Z. XXXA.(.OXW. XOX}.|.t.j.m.2.%.4.=.*.2.=.4.*.6.",
"=.%.=.3.4.4.2.6.6.    t C J.$XoXoXoX X/.T.R. X Xl.W.XX). X).U.!.[ g.m.4.4.=.4.8.6.=.;.9.4.",
"9.4.4.&.3.2.=.4.*.    : 1 v a.Y.oXOXoX X(.XXXX(. X_.A.k.U.z.e.p.t.t.j.4.2.9.2.3.&.*.&.*.4.",
"4.2.2.%.2.4.&.&.&.    w M M e.a.). XoXoXXXoX).W. X XJ.i.P.Y.p.b.x.c.c.*.6.9.9.9.4.=.*.*.9.",
"=.&.=.2.4.8.8.*.8.    > C M e.J.oXE.A.E.XX%X X X`. X).i.J.!.y.p.[ j.m.;.8.$.2.$.*.=.*.;.8.",
"8.2.6.2.&.8.8.8.$.    y C u.5 n !.k.' [ XX%XXX XJ.L.P.5 5 b !.|.( ` g.&.6.%.9.2.4.=.%.=.4.",
"&.6.=.8.&.2.3.2.&.    t C J.7 8 L.L.!.C.R. X_.W.z.J.J.4 5 5 U.|.g.t.j.$.7.8.2.8.8.5.8.4.=.",
"=.4.*.9.*.&.9.4.4.    > v [ 5 4 ] r.L. X X X XT.[ a.a.5 # + y.!.g.n.m.4.4.4.7.8.4.2.8.=.6.",
"%.3.%.2.9.*.3.*.8.    V ] y.4 5 # . @ U.L.J.L.L.4 5 5 5 5 # a.U.( j.m.9.&.8.8.&.5.6.%.*.2.",
"8.=.=.2.&.2.9.2.%.    t ' y.5 r b o @ U.J.a.!.!.q x 7 n b 8 U.Y.A S [ &.9.2.;.*.4.8.8.9.*.",
"4.2.9.4.9.&.2.2.%.    : J u.@ u X.L I oX/.C. X XI I I 0 6 x !.{.J Z S &.3.4.4.9.=.2.%.*.4.",
"=.=.=.6.=.3.&.*.&.    : v ( @ 4 Y I @.+XK.a.E.).P P P @ 5 Z {.|.` J ^ &.4.2.&.3.6.4.2.%.4.",
"9.*.2.2.2.%.8.2.2.    : V ' + @ K U @.+X XW._.oXU  . .@ q Z !.@Xt.' g.$.%.&.-.=.p &.%.9.6.",
"7.2.4.3.2.3.8.4.2.=.&.  . + i.' ' ).%Xp.e./ / / /.XXoXi.!.Y.b ( 9.=.%.*.2.2.-.* < f 4.8.4.",
"2.4.=.9.9.%.%.9.4.4.&.  . O u.i.' (.%Xp.e./ G G h.W.E.i.{.}.A ' 4.&.9.9.3.4.* _ & 6.=.3.%.",
"%.2.=.9.&.=.*.2.2.&.4.. . + a.a.[ I.+Xe.e.e./ / T.l.' ` U.}.[ g.%.4.7.&.N ; ].* * =.%.6.=.",
"8.8.2.8.2.3.2.4.%.@ + x v M  X_.@ @ 8 `. XoX). Xq $ # E. XoXn.U.M.Q.z z k H.<.& 2 &.9.2.&.",
"4.9.4.-.4.2.*.4.*.@ @ M v G  X`.7 0 u `. X X XoXb e 5  X XoXb.b.z z * z N ]._ d *.2.&.$.&.",
"2.2.4.9.p 4.  . + f.f.l.z.).n 4 9 0 0 4 8 b n b e 6 0 b q q z z * ].` z z V.#.2.9.4.=.2.6.",
"&.&.3.$.i * * * O ' l._.I.oXn 4 4 5 6 4 4 4 5 8 u x Z x z * * C.'.'.} O.Z * #.2.6.2.*.9.*.",
"8.-.D * * * * * * h l z g./.Z Z e $ $ $ $ $ # $ z z z F.c * ; ].].S.O.O.* , 4.9.=.-.-.7.=.",
"$.2.2.2.=.2.  X - k z z z z z z z z z z z z * G.].].].H.* * ) ].].n * * * H $.4.7.4.4.2.4.",
"2.7.%.4.6.;.X % * * * * h l l ; * * V * * = ..O.O.O.O.w * * S.O.! * * - C c 2 d =.4.;.8.=.",
"*.2.=.8.2.f % X * * * * * = x O.O.O.H.].].].].].G.].].].].S.O.o.` =X=X].<.* 3 f f d 7.*.9.",
"8.3.p 3 p D c V ].].].v.F - Z o...+.H.G.G.[.[.[.[.%X} Q Q r r m N.v.d.1.1.H.'.V * * 4.=.=.",
"9.=.a * * | ].D.O.+.1.v..X*X` y b T Q Q h.-X*X*X*X.XQ Q Q Q Q m * * n O.S.].'.V * * 2.9.4.",
"%.*.i * * _ ].S.O.O.~ & & * E Q Q Q Q Q Q.=X*X*X=XK.Q Q Q Q Q w * * R o.D.].].k * * 3.4.*.",
"3.$.s * * ' ].H.D.D.{ * * - Q Q Q Q Q Q .X=X*X*X&X[ ^ ^ m b x = * * F.H.].].].* * = 4.6.4.",
"9.7.a & * _ ].].].].<.* * * * * ; w.q.q.s.s.s.s.s.0.0.0.* * & * * ; ].].].].F.* * 2 =.8.2.",
"4.9.s - = _ ].].].].,.* * * * * , 0.0.w.s.s.s.s.s.0.0.B * * * * * < ].].].'.V.2 2 d %.6.7.",
"4.3.9.2.&.f * * = < < * * w W W ! { } ( j j j j N } { } ~ ~ W * * * ; = = * 3 %.7.*.$.3.8.",
"4.&.4.4.3.d & & * * * * * x O.o.O.O.O.R * * * * t O.O.O.O.O.W * * * * * * * i 7.&.2.=.2.4.",
"2.8.*.3.&.g - - - * * * * b O.O.O.O.O.T * * * & y O.O.O.O.O.T & * * - * * * s 9.6.7.2.2.%."
};
