/* XPM */
static char *_5249_366a0c5d2d19a908e0ed0f75b0841e8aa5b53312e62c9615b0f75cee8871ac5a[] = {
/* columns rows colors chars-per-pixel */
"45 45 52 1 ",
"  c #A1AA4A",
". c #A2AB4A",
"X c #A2AC4B",
"o c #A3AD4B",
"O c #A4AE4C",
"+ c #A5AF4C",
"@ c #A6B04D",
"# c #A7B14D",
"$ c #A8B24D",
"% c #A9B34E",
"& c #AAB44E",
"* c #ABB54F",
"= c #ACB64F",
"- c #ADB750",
"; c #AEB850",
": c #AFB950",
"> c #B0BA51",
", c #B1BB51",
"< c #B2BC52",
"1 c #B3BD52",
"2 c #B4BE53",
"3 c #B4BF53",
"4 c #B5C054",
"5 c #B6C154",
"6 c #B7C254",
"7 c #B8C355",
"8 c #B9C455",
"9 c #BAC556",
"0 c #BBC656",
"q c #BCC757",
"w c #BDC857",
"e c #BEC957",
"r c #BFCA58",
"t c #C0CB58",
"y c #C1CC59",
"u c #C2CD59",
"i c #C3CE5A",
"p c #C4CF5A",
"a c #C5D05B",
"s c #C6D15B",
"d c #C6D25B",
"f c #C7D35C",
"g c #C8D45C",
"h c #C9D55D",
"j c #CAD65D",
"k c #CBD75E",
"l c #CCD85E",
"z c #CDD95E",
"x c #CEDA5F",
"c c #CFDB5F",
"v c #D0DC60",
"b c #D1DD60",
/* pixels */
":kO>-&.3tht+4*7dvs>@,-4r:fsv*0xoxa#x.2Odf$f%X",
"6es,zc><q7r8*$*$p3Xqdu<Oibjtqf3@l+>1hk>f7hd;q",
"5rl+8jv=v;&h3h8oiso0q7%4-yvt=,ev@7g&5#7aob#<*",
"v$x1d*,d7-bx3O0uwOx<y-;yeg&u2tr0yhk>ycxh0e#9-",
",62vr;.wq8fo=x-x2xu>>jf@wbxoig,6zwfbp%s,.li24",
"wbpX,&9p-f71ke4512zbx0=>$l9k:6t0#s2-shzspXawl",
"7=:36Oy,92sO73322j=k%*wbe=9,k33@8+ocbv 7f;x$,",
"gdub=e7qXttu>r48eo9gs@<&:Oxip%zk%%q O= v,x%7o",
"#daXylpo=-x=zosp;;16a;3p#s%@vkt9w3$X2jhkaplu7",
"Oi176p,qh<yh5t -zXgcpX9;xz-,+1XsO8fwowvp%-4>#",
"w;*:a#a84v34c;-@5,uc<;ab<&:oii.&xi=f.fkh 7h9*",
"%$gz&@6t#t9o1-X0=k,>pa$3%d%-s9*@*=e-gx=bh4;07",
"wwhh-y+<Xkrs>;>o51:fo-u. u-zp&,$;vh6 q<%7>t$f",
":O:quy3sg$*+@7bwey8*>X#6hl2<iwX@y#lap,rja><vt",
"cdw@7>>w$v30*flok$7-gcljq+3f0O3-$#pp7v3w+*@%q",
"d,>@2u%%@h<xel#x8+dgx7dO2,bX$>8l,k&#iccct1=&b",
";%>6pjk&hx<$k::%%yjby:c@x5t1>6>=va%>z 6 *=%2g",
"g7f2@kxjXhghg3p1f6<z f :wvq6.ohkd3rOpox9u:.-r",
"&s:h+664$O5dv%. ,gs*O,jt&,s1bo>ae+sXgj5kzpct:",
"*t=x-$cayf<jOqoj191Xc3u5g$98t:.x@y+eyyah05a,i",
" 9X6b+8$kc+d3l.&vu%8j<d%z#Xlf q<b5lv$hhOadX-3",
"j<>6%6b5Oe67q;g,y:a8:vw.g0swXdhlt.8%z71#yzjz=",
"r4brz*64+@.ygsx<.=Xd>z8$#6+z,*a;4 *@wypb;6o:t",
":;;p-8&==h q=bx$o3e-jki#e#Xie9by#O$Xs2@9s83Oi",
"z%342.h5,>&$04kr-3-yd%<a:$e4d#- 55gX+@*:2&.bp",
"j4i080hd3-:;*rivhh1ykj#z20.<ct33l;@*w,-5pwqje",
"6u:bk+Xviq=#:,v0d><x7*7,$.$k<g.zpXvzqrw0;f,8+",
"o8-z#-*36+p:z&4f3-#io%s>5ad$l09d+ea&bage4-@u:",
"gf5g605eo0g#6&i6@.647c996ufaq&OO,;c0+gi#p@l4@",
"tcd:y6$a*8.Xq #*.hglx=-ccxi-$i+q<it-.-67=6; +",
"26ax#epa3u4;,vp=7 $j47%4et>v6fza3t-uf&v8jt>6f",
"%#if#yo<,*#5o-f-w;dyu;,3ksh+Xjqc$8f2q2&3d6%b$",
"f4,:02.pf;=w%-czhz%,se=4Xg=X 6e8clk$&0qx>;>d:",
"o416;7sh.7.gl&zkdzd$whcr+wya41e@5pw3yi.tfwy3u",
"1d+ysp>=j$*iw;7%gpy3>kf8:,X0@fvdwtte%$gl;a>k>",
";5>j3lggr>079jicv+$<o7h4.8 $,=.i=xx<0s<#>vj*v",
"lq@gk+z=99.<a><+;>zgg0ze#w<82k$ux-zoh;=lyey-:",
"x,huh<h,cjyzzgkq2y-psj8.tb5al-v2:,xi6r@=>*1x0",
"X& 8jhxkeoz0wfwOvfg*,27c0td@sc.qs>ti9*:>#a6y#",
"9.e$#agva-k$5r=v:xlb&xd&d39wtO.7ddj37geu%Ouau",
"xj.g4>ljdk#6zz,vuc$-r.85*<05+rae<7h0*3l609>h3",
"rv r&6,*@8i8;2z1gl9cXo@vtr=O93o3p:+pf1l- e.dh",
"d8x=+k>pXa2>z7yOhj6+<s:#e614;-qxcdfy7%6Og=oqh",
"y+iiqo510Oce%%x*3kszjzd4Xzo=.q1u-e;k#t1g@<,7p",
"-z;0*h16;X7&rksO80ckx.lOy;1=fi#1@yrd7oacag63."
};
