/* XPM */
static char *_436_7d1bacac8bd914fa415d45b0a1074d24b6b4a68ad019cbc53dd03d598adfa96c[] = {
/* columns rows colors chars-per-pixel */
"45 45 61 1 ",
"  c #14182E",
". c #52333F",
"X c #2B2B45",
"o c #3A3F5E",
"O c #8F4D57",
"+ c #BD6A62",
"@ c #A1AA4A",
"# c #A2AB4A",
"$ c #A2AC4B",
"% c #A3AD4B",
"& c #A4AE4C",
"* c #A5AF4C",
"= c #A6B04D",
"- c #A7B14D",
"; c #A8B24D",
": c #A9B34E",
"> c #AAB44E",
", c #ABB54F",
"< c #ACB64F",
"1 c #ADB750",
"2 c #AEB850",
"3 c #AFB950",
"4 c #B0BA51",
"5 c #B1BB51",
"6 c #B2BC52",
"7 c #B3BD52",
"8 c #B4BE53",
"9 c #B4BF53",
"0 c #B5C054",
"q c #B6C154",
"w c #B7C254",
"e c #B8C355",
"r c #B9C455",
"t c #BAC556",
"y c #BBC656",
"u c #BCC757",
"i c #BDC857",
"p c #BEC957",
"a c #BFCA58",
"s c #C0CB58",
"d c #C1CC59",
"f c #C2CD59",
"g c #C3CE5A",
"h c #C4CF5A",
"j c #C5D05B",
"k c #C6D15B",
"l c #C6D25B",
"z c #C7D35C",
"x c #C8D45C",
"c c #C9D55D",
"v c #CAD65D",
"b c #CBD75E",
"n c #CCD85E",
"m c #CDD95E",
"M c #CEDA5F",
"N c #CFDB5F",
"B c #D0DC60",
"V c #D1DD60",
"C c #4FA4B8",
"Z c #FFC2A1",
"A c #DFE0E8",
/* pixels */
"3b&41>#9scs*0,                 %Mj-M#8&lz;z:$",
"wpk5mN46uear,;                 =n*47cb4zecl2u",
"qan*rvB<B2>c9c                 B=ex>q-ej%V-6,",
"B;M7l,5le1V   ooooooooooooooooo   b4dNMcyp-t1",
"5w8Ba2#iurz   ooooooooooooooooo   zVh:k5#ng80",
"iVh$5>th1ze   ooooooooooooooooo   81kcmkh$jin",
"e<39w&d5   ooooooooooooooooooooooo   B@ez2M;5",
"xlfV<peu   ooooooooooooooooooooooo   <@B5M:e%",
"-lj$dnh%   ooooooooooooooooooooooo   vcbjhnfe",
"&g7ewh5u   ooooooooooooooooooooooo   iBh:104-",
"i2,3j-jr   ooooooooooooooooooooooo   zbc@ect,",
":;xm>=ws   ooooooZZZoooooooooooooo   M<Vc02ye",
"iicc1d*6   ooooooZZZoooooooooooooo   u6:e4s;z",
"3&3ufd9k   ooooooZZZoooooooooooooo   5avj46Bs",
"Nli=e44i   ZZZZZZZZZoooooooooooooo   B9i*,=:u",
"l54=8f::   ZZZZZZZZZoooooooooooooo   NNNs7<>V",
"2:4whvb>   ZZZZZZZZZoooooooooooooo   @w@,<:8x",
"xez8=bMv   ZZZXXXXXXoooooooooooooo   %Mtf3#1a",
">k3c*ww0   ZZZXXXXXXoooooooooooooo   vqbmhNs3",
",s<M1;Nj   ZZZXXXXXXoooooooooooooo   djcyqj5g",
"@t$wV*r;   ZZZ   ZZZooZZZZZZoooooo   cc&jl$19",
"v64w:wVq   ZZZ   ZZZooZZZZZZoooooo   e7-dmvm<",
"a0Vam,w0   +++   ZZZoo+++ZZZooo   ,=idhV2w%3s",
"322h1r><   +++   ZZZoo+++ZZZooo   ;$k8=tkr9&g",
"m:908#cq   +++   ZZZoo+++ZZZooo   x$*=,38>#Vh",
"v0gyrycl913   ZZZZZZZZZZZooo   9n2=,i51qhiuvp",
"wf3Vb*$Bgu<   ZZZZZZZZZZZooo   mh$Bmuaiy2z5r*",
"%r1m-1,9w*h   ZZZZZZZZZZZooo   l*pj>Vjxp01=f3",
"xzqxwyqp%yx-w>      ++...      &52Ny*xg-h=n0=",
"sNl3dw;j,r#$u@      ++...      u6gs1#1we<w2@*",
"8wjM-phj9f025B      ++...      j9s1fz>Brvs4wz",
":-gz-d%65,-   AAAOOO..   AAA   N;rz8u8>9lw:V;",
"z053y8#hz2<   AAAOOO..   AAA   rNnb;>yuM424l3",
"%07w2ekc#e#   AAAOOO..   AAA   =qhi9dg#szid9f",
"7l*dkh4<v;,   AAAOOO  +++ZZZ   lissp:;xn2j4b4",
"2q4v9nxxa4y   AAAOOO  +++ZZZ   g<MM6yk6-4Bv,B",
"nu=xb*m<tt#   CCCCCC  ZZZZZZ   fM1m%c2<ndpd13",
"M5cfc6c5Nvd   CCCCCC  ZZZZZZ   835Mgwa=<4,7My",
"$>@rvcMbp%m   CCCCCC  ZZZZZZ   uk4sgt,34-jwd-",
"t#p;-jxBj1b;qa   +++++      s&#ellv9expf:&fjf",
"Mv#x04nvlb-wmm   +++++      *ajp6ecy,9nwyt4c9",
"aB@a>w5,=rgr28   +++++      t9%9h3*hz7n1@p#lc",
"lrM<*b4h$j84med&c     3-pw7021uMNlzde:w&x<%uc",
"d*ggu%q7y&Np::M,9     l0$m%<#u7f1p2b-s7x=65eh",
"1m2y,c7w2$e>abk&r     n&d27<zg-7=dale%jNjxw9#"
};
