/* XPM */
static char *_3526_f1f76d6164997b0ab2f12988683dd5bf397cbad217cfb644935e78f6cddb5b11[] = {
/* columns rows colors chars-per-pixel */
"45 45 61 1 ",
"  c #14182E",
". c #52333F",
"X c #2B2B45",
"o c #3A3F5E",
"O c #8F4D57",
"+ c #BD6A62",
"@ c #A1AA4A",
"# c #A2AB4A",
"$ c #A2AC4B",
"% c #A3AD4B",
"& c #A4AE4C",
"* c #A5AF4C",
"= c #A6B04D",
"- c #A7B14D",
"; c #A8B24D",
": c #A9B34E",
"> c #AAB44E",
", c #ABB54F",
"< c #ACB64F",
"1 c #ADB750",
"2 c #AEB850",
"3 c #AFB950",
"4 c #B0BA51",
"5 c #B1BB51",
"6 c #B2BC52",
"7 c #B3BD52",
"8 c #B4BE53",
"9 c #B4BF53",
"0 c #B5C054",
"q c #B6C154",
"w c #B7C254",
"e c #B8C355",
"r c #B9C455",
"t c #BAC556",
"y c #BBC656",
"u c #BCC757",
"i c #BDC857",
"p c #BEC957",
"a c #BFCA58",
"s c #C0CB58",
"d c #C1CC59",
"f c #C2CD59",
"g c #C3CE5A",
"h c #C4CF5A",
"j c #C5D05B",
"k c #C6D15B",
"l c #C6D25B",
"z c #C7D35C",
"x c #C8D45C",
"c c #C9D55D",
"v c #CAD65D",
"b c #CBD75E",
"n c #CCD85E",
"m c #CDD95E",
"M c #CEDA5F",
"N c #CFDB5F",
"B c #D0DC60",
"V c #D1DD60",
"C c #4FA4B8",
"Z c #FFC2A1",
"A c #DFE0E8",
/* pixels */
"3b&41>#9scs*0,                 %Mj-M#8&lz;z:$",
"wpk5mN46uear,;                 =n*47cb4zecl2u",
"qan*rvB<B2>c9c                 B=ex>q-ej%V-6,",
"B;M7l,5le1V   ooooooooooooooooo   b4dNMcyp-t1",
"5w8Ba2#iurz   ooooooooooooooooo   zVh:k5#ng80",
"iVh$5>th1ze   ooooooooooooooooo   81kcmkh$jin",
"e<39w&d5   ooooooooooooooooooooooo  VB@ez2M;5",
"xlfV<peu   ooooooooooooooooooooooo  &<@B5M:e%",
"-lj$dnh%   ooooooooooooooooooooooo  8vcbjhnfe",
"&g7ewh5u   ooooooooooooooooooooooo  %iBh:104-",
"i2,3j-jr   ooooooooooooooooooooooo  #zbc@ect,",
":;xm>=ws   ooooooooooooooZZZoooooo  xM<Vc02ye",
"iicc1d*6   ooooooooooooooZZZoooooo  @u6:e4s;z",
"3&3ufd9k   ooooooooooooooZZZoooooo  h5avj46Bs",
"Nli=e44i   ooooooooooooooZZZZZZZZZ  eB9i*,=:u",
"l54=8f::   ooooooooooooooZZZZZZZZZ  gNNNs7<>V",
"2:4whvb>   ooooooooooooooZZZZZZZZZ  m@w@,<:8x",
"xez8=bMv   ooooooooooooooXXXXXXZZZ  h%Mtf3#1a",
">k3c*ww0   ooooooooooooooXXXXXXZZZ  xvqbmhNs3",
",s<M1;Nj   ooooooooooooooXXXXXXZZZ  ddjcyqj5g",
"@t$wV*r;   ooooooZZZZZoooZZZ   ZZZ  ;cc&jl$19",
"v64w:wVq   ooooooZZZZZoooZZZ   ZZZ  me7-dmvm<",
"a0Vam,w0*=#   oooZZZ++oooZZZ   +++  idhV2w%3s",
"322h1r><<c@   oooZZZ++oooZZZ   +++  k8=tkr9&g",
"m:908#cq54>   oooZZZ++oooZZZ   +++  *=,38>#Vh",
"v0gyrycl9132,a   oooZZZZZZZZZZZ   =,i51qhiuvp",
"wf3Vb*$Bgu<-35   oooZZZZZZZZZZZ   Bmuaiy2z5r*",
"%r1m-1,9w*h3m>   oooZZZZZZZZZZZ   j>Vjxp01=f3",
"xzqxwyqp%yx-w>      ..+++      &52Ny*xg-h=n0=",
"sNl3dw;j,r#$u@      ..+++      u6gs1#1we<w2@*",
"8wjM-phj9f025B      ..+++      j9s1fz>Brvs4wz",
":-gz-d%65,-q%1   AAA  ...OOOAAA   z8u8>9lw:V;",
"z053y8#hz2<i:1   AAA  ...OOOAAA   b;>yuM424l3",
"%07w2ekc#e#xn>   AAA  ...OOOAAA   i9dg#szid9f",
"7l*dkh4<v;,gi2   ZZZ++   OOOAAA   sp:;xn2j4b4",
"2q4v9nxxa4yetv   ZZZ++   OOOAAA   M6yk6-4Bv,B",
"nu=xb*m<tt#6j4   ZZZZZ   CCCCCC   m%c2<ndpd13",
"M5cfc6c5Nvdmmx   ZZZZZ   CCCCCC   Mgwa=<4,7My",
"$>@rvcMbp%myiz   ZZZZZ   CCCCCC   sgt,34-jwd-",
"t#p;-jxBj1b;qa<B3     ++++++   ellv9expf:&fjf",
"Mv#x04nvlb-wmm5Bf     ++++++   p6ecy,9nwyt4c9",
"aB@a>w5,=rgr28m7x     ++++++   9h3*hz7n1@p#lc",
"lrM<*b4h$j84med&cvw*6k      21uMNlzde:w&x<%uc",
"d*ggu%q7y&Np::M,9bkmvm      #u7f1p2b-s7x=65eh",
"1m2y,c7w2$e>abk&ryNbM#      zg-7=dale%jNjxw9#"
};
