/* XPM */
static char *_6403_43bc51df5337182be2940b1207963dbba70b2d5192c4c35c5c15812f4bdc1ecc[] = {
/* columns rows colors chars-per-pixel */
"45 45 60 1 ",
"  c #14182E",
". c #52333F",
"X c #3A3F5E",
"o c #8F4D57",
"O c #BD6A62",
"+ c #A1AA4A",
"@ c #A2AB4A",
"# c #A2AC4B",
"$ c #A3AD4B",
"% c #A4AE4C",
"& c #A5AF4C",
"* c #A6B04D",
"= c #A7B14D",
"- c #A8B24D",
"; c #A9B34E",
": c #AAB44E",
"> c #ABB54F",
", c #ACB64F",
"< c #ADB750",
"1 c #AEB850",
"2 c #AFB950",
"3 c #B0BA51",
"4 c #B1BB51",
"5 c #B2BC52",
"6 c #B3BD52",
"7 c #B4BE53",
"8 c #B4BF53",
"9 c #B5C054",
"0 c #B6C154",
"q c #B7C254",
"w c #B8C355",
"e c #B9C455",
"r c #BAC556",
"t c #BBC656",
"y c #BCC757",
"u c #BDC857",
"i c #BEC957",
"p c #BFCA58",
"a c #C0CB58",
"s c #C1CC59",
"d c #C2CD59",
"f c #C3CE5A",
"g c #C4CF5A",
"h c #C5D05B",
"j c #C6D15B",
"k c #C6D25B",
"l c #C7D35C",
"z c #C8D45C",
"x c #C9D55D",
"c c #CAD65D",
"v c #CBD75E",
"b c #CCD85E",
"n c #CDD95E",
"m c #CEDA5F",
"M c #CFDB5F",
"N c #D0DC60",
"B c #D1DD60",
"V c #4FA4B8",
"C c #FFC2A1",
"Z c #DFE0E8",
/* pixels */
"2v%3<:@8axa&9>                 $mh=m@7%kl-l;#",
"qij4nM35ywpe>-                 *b&36xv3lwxk1y",
"0pb&ecN,N1:x8x                 N*wz:0=wh$B=5>",
"N-m6k>4kw<B   XXXXXXXXXXXXXXXXX   v3sMmxti=r<",
"4q7Np1@uyel   XXXXXXXXXXXXXXXXX   lBg;j4@bf79",
"uBg#4:rg<lw   XXXXXXXXXXXXXXXXX   7<jxnjg#hub",
"w,28q%s4   XXXXXXXXXXXXXXXXXXXXXXX  BN+wl1m-4",
"zkdB,iwy   XXXXXXXXXXXXXXXXXXXXXXX  %,+N4m;w$",
"=kh#sbg$   XXXXXXXXXXXXXXXXXXXXXXX  7cxvhgbdw",
"%f6wqg4y   XXXXXXXXXXXXXXXXXXXXXXX  $uNg;<93=",
"u1>2h=he   XXXXXXXXXXXXXXXXXXXXXXX  @lvx+wxr>",
";-zn:*qa   XXXXXXXXXXXXXXXXXXXXXXX  zm,Bx91tw",
"uuxx<s&5   XXXXXXXXXXXXXXXXXXXXXXX  +y5;w3a-l",
"2%2yds8j   XXXXXXXXXXXXXXXXXXXXXXX  g4pch35Na",
"Mku*w33u   XXXXXXXXXXXXXXXXXXXXXXX  wN8u&>*;y",
"k43*7d;;   XXXXXXXXXXXXXXXXXXXXXXX  fMMMa6,:B",
"1;3qgcv:   XXXXXXXXXXXXXXXXXXXXXXX  n+q+>,;7z",
"zwl7*v  CCCXXXXXXXXXXXXXXXXXXXXXXXCC   rd2@<p",
":j2x&q  CCCXXXXXXXXXXXXXXXXXXXXXXXCC   vngMa2",
">a,m<-  CCCXXXXXXXXXXXXXXXXXXXXXXXCC   xt0h4f",
"+r#qB&  CCCXXXXXXXXXXXXXXXXXXXXXXXCC   %hk#<8",
"c53q;q  CCCXXXXXXXXXXXXXXXXXXXXXXXCC   =sncn,",
"p9Bpn>q9   OOOXXXXXXXXXXXXXXXXXOOO  usgB1q$2a",
"211g<e:,   OOOXXXXXXXXXXXXXXXXXOOO  j7*rje8%f",
"n;897@x0   OOOXXXXXXXXXXXXXXXXXOOO  &*>27:@Bg",
"c9ftetxk      OOOOOOXXXXXOOOOOO     u4<0guyci",
"qd2Bv&#N      OOOOOOXXXXXOOOOOO     yput1l4e&",
"$e<n=<>8      OOOOOOXXXXXOOOOOO     Bhzi9<*d2",
"zl0zqt  CCCZZZ...           ...ZZZCC   =g*b9*",
"aMk2sq  CCCZZZ...           ...ZZZCC   w,q1+&",
"7qhm=i  CCCZZZ...           ...ZZZCC   eca3ql",
";=f   CCOOO   ...ooo.....ooo...   OOCCC   ;B-",
"l94   CCOOO   ...ooo.....ooo...   OOCCC   3k2",
"$96   CCOOO   ...ooo.....ooo...   OOCCC   s8d",
"6k&   CCCCC   ......ooooo......   CCCCC   3v3",
"103   CCCCC   ......ooooo......   CCCCC   c>N",
"by*zv&           VVVVVVVVVVV           bsis<2",
"m4xdx5           VVVVVVVVVVV           ,3>6mt",
"#:+ecx           VVVVVVVVVVV           3=hqs=",
"r@i-=hzNh<v   OOOOOO     OOOOOO   c8wzid;%dhd",
"mc@z93bckv=   OOOOOO     OOOOOO   xt>8bqtr3x8",
"pN+p:q4>*ef   OOOOOO     OOOOOO   &gl6b<+i@kx",
"kem,&v3g#h73nw      5j2=i      mMklsw;q%z,$yx",
"s&ffy$06t%Mi;;      cnk9#      d<i1v=a6z*54wg",
"<n1t>x6q1#w:pv      m@b%s      6*spkw$hMhzq8@"
};
