/* XPM */
static char *_2637_05a623fab2bd5818e1f553596cbda706772d8e1afff4163d6091b38aad0efe4f[] = {
/* columns rows colors chars-per-pixel */
"45 45 62 1 ",
"  c #14182E",
". c #52333F",
"X c #2B2B45",
"o c #3A3F5E",
"O c #8F4D57",
"+ c #BD6A62",
"@ c #A1AA4A",
"# c #A2AB4A",
"$ c #A2AC4B",
"% c #A3AD4B",
"& c #A4AE4C",
"* c #A5AF4C",
"= c #A6B04D",
"- c #A7B14D",
"; c #A8B24D",
": c #A9B34E",
"> c #AAB44E",
", c #ABB54F",
"< c #ACB64F",
"1 c #ADB750",
"2 c #AEB850",
"3 c #AFB950",
"4 c #B0BA51",
"5 c #B1BB51",
"6 c #B2BC52",
"7 c #B3BD52",
"8 c #B4BE53",
"9 c #B4BF53",
"0 c #B5C054",
"q c #B6C154",
"w c #B7C254",
"e c #B8C355",
"r c #B9C455",
"t c #BAC556",
"y c #BBC656",
"u c #BCC757",
"i c #BDC857",
"p c #BEC957",
"a c #BFCA58",
"s c #C0CB58",
"d c #C1CC59",
"f c #C2CD59",
"g c #C3CE5A",
"h c #C4CF5A",
"j c #C5D05B",
"k c #C6D15B",
"l c #C6D25B",
"z c #C7D35C",
"x c #C8D45C",
"c c #C9D55D",
"v c #CAD65D",
"b c #CBD75E",
"n c #CCD85E",
"m c #CDD95E",
"M c #CEDA5F",
"N c #CFDB5F",
"B c #D0DC60",
"V c #D1DD60",
"C c #4C6885",
"Z c #4FA4B8",
"A c #FFC2A1",
"S c #DFE0E8",
/* pixels */
"3b&41>#9scs*0,                 %Mj-M#8&lz;z:$",
"wpk5mN46uear,;                 =n*47cb4zecl2u",
"qan*rvB<B2>c9c                 B=ex>q-ej%V-6,",
"B;M7l,5le1V   ooooooooooooooooo   b4dNMcyp-t1",
"5w8Ba2#iurz   ooooooooooooooooo   zVh:k5#ng80",
"iVh$5>th1ze   ooooooooooooooooo   81kcmkh$jin",
"e<39w&d5   ooooooooooooooooooooooo  VB@ez2M;5",
"xlfV<peu   ooooooooooooooooooooooo  &<@B5M:e%",
"-lj$dnh%   ooooooooooooooooooooooo  8vcbjhnfe",
"&g7ewh5u   ooooooooooooooooooooooo  %iBh:104-",
"i2,3j-jr   ooooooooooooooooooooooo  #zbc@ect,",
":;xm>=ws   oooAAAoooooooooooAAAooo  xM<Vc02ye",
"iicc1d*6   oooAAAoooooooooooAAAooo  @u6:e4s;z",
"3&3ufd9k   oooAAAoooooooooooAAAooo  h5avj46Bs",
"Nli=e44i   oooAAAAAAAAAAAAAAAAAooo  eB9i*,=:u",
"l54=8f::   oooAAAAAAAAAAAAAAAAAooo  gNNNs7<>V",
"2:4whvb>   oooAAAAAAAAAAAAAAAAAooo  m@w@,<:8x",
"xez8=b  AAAoooXXXXXXAAAAAXXXXXXoooAA   tf3#1a",
">k3c*w  AAAoooXXXXXXAAAAAXXXXXXoooAA   bmhNs3",
",s<M1;  AAAoooXXXXXXAAAAAXXXXXXoooAA   cyqj5g",
"@t$wV*  AAAoooAAA   AAAAA   AAAoooAA   &jl$19",
"v64w:w  AAAoooAAA   AAAAA   AAAoooAA   -dmvm<",
"a0Vam,w0   +++AAA   +++++   AAA+++  idhV2w%3s",
"322h1r><   +++AAA   +++++   AAA+++  k8=tkr9&g",
"m:908#cq   +++AAA   +++++   AAA+++  *=,38>#Vh",
"v0gyrycl      +++AAAAAAAAAAA+++     i51qhiuvp",
"wf3Vb*$B      +++AAAAAAAAAAA+++     uaiy2z5r*",
"%r1m-1,9      +++AAAAAAAAAAA+++     Vjxp01=f3",
"xzqxwy  AAASSS...OOO+++++OOO...SSSAA   -h=n0=",
"sNl3dw  AAASSS...OOO+++++OOO...SSSAA   e<w2@*",
"8wjM-p  AAASSS...OOO+++++OOO...SSSAA   rvs4wz",
":-    AA+++   ...OOOSSSSSOOO...   ++AAA    V;",
"z0    AA+++   ...OOOSSSSSOOO...   ++AAA    l3",
"%0    AA+++   ...OOOSSSSSOOO...   ++AAA    9f",
"7l    AAAAA   OOOOOOSSSSSOOOOOO   AAAAA    b4",
"2q    AAAAA   OOOOOOSSSSSOOOOOO   AAAAA    ,B",
"nu=xb*           CCCZZZZZCCC           ndpd13",
"M5cfc6           CCCZZZZZCCC           <4,7My",
"$>@rvc           CCCZZZZZCCC           4-jwd-",
"t#p;-jxBj1b   ++++++     ++++++   v9expf:&fjf",
"Mv#x04nvlb-   ++++++     ++++++   cy,9nwyt4c9",
"aB@a>w5,=rg   ++++++     ++++++   *hz7n1@p#lc",
"lrM<*b4h$j84me      6k3-p      MNlzde:w&x<%uc",
"d*ggu%q7y&Np::      vml0$      f1p2b-s7x=65eh",
"1m2y,c7w2$e>ab      M#n&d      7=dale%jNjxw9#"
};
