/* XPM */
static char *_7174_d01db664984dd6f410594209a07943e612bd2d5e3416605937dcd1be3b27d9b7[] = {
/* columns rows colors chars-per-pixel */
"45 45 56 1 ",
"  c #0A112B",
". c #9FAC40",
"X c #9FAE41",
"o c #A0AD40",
"O c #A0AF41",
"+ c #A1B042",
"@ c #A2B142",
"# c #A3B143",
"$ c #A4B343",
"% c #A5B343",
"& c #A6B444",
"* c #A7B544",
"= c #A8B645",
"- c #A9B745",
"; c #AAB846",
": c #ABB946",
"> c #ACBA45",
", c #ADBB47",
"< c #AEBC46",
"1 c #AFBD48",
"2 c #B0BE47",
"3 c #B1BF49",
"4 c #B1C048",
"5 c #B3C249",
"6 c #B2C14A",
"7 c #B4C349",
"8 c #B5C44A",
"9 c #B6C54A",
"0 c #B7C64B",
"q c #B8C74B",
"w c #B9C84C",
"e c #BAC94C",
"r c #BBCA4C",
"t c #BCCB4D",
"y c #BDCC4D",
"u c #BECD4E",
"i c #BFCE4E",
"p c #C0CF4F",
"a c #C1D04F",
"s c #C2D150",
"d c #C3D250",
"f c #C2D350",
"g c #C3D451",
"h c #C4D551",
"j c #C5D652",
"k c #C6D752",
"l c #C7D853",
"z c #C8D953",
"x c #C9DA53",
"c c #CADB54",
"v c #CBDC54",
"b c #CCDD55",
"n c #CDDE55",
"m c #65709C",
"M c #A3A9C4",
"N c #E0E1E9",
/* pixels */
">l+,;*o4yjy@6=                 Ocs$co3+fg%g&X",
"7rd<xv,1w8t9=%                 #z@,2jl,g8jf:w",
"5tz@9kb-b:*j4j                 b#8h*5$8sOn$1=",
"b%c2f=<f8;n   MMMNNNNNNNNNNNMMM   l,uvcjqr$0;",
"<73bt:oew9g   MMMNNNNNNNNNNNMMM   gna&d<ozp36",
"enaX<*0a;g8   MMMNNNNNNNNNNNMMM   3;djxdaXsez",
"8->47+u<   MMMNNNNNNNNNNNNNNNNNMMM  nb.8g:c%<",
"hfin-r8w   MMMNNNNNNNNNNNNNNNNNMMM  +-.b<c&8O",
"$fsXuzaO   MMMNNNNNNNNNNNNNNNNNMMM  3kjlsazi8",
"+p287a<w   MMMNNNNNNNNNNNNNNNNNMMM  Oeba&;6,$",
"e:=>s$s9   MMMNNNNNNNNNNNNNNNNNMMM  oglj.8j0=",
"&%hx*#7y   MMMmmmNNNNNNNNNNNmmmMMM  hc-nj6:q8",
"eejj;u@1   MMMmmmNNNNNNNNNNNmmmMMM  .w1&8,y%g",
">+>wiu4d   MMMmmmNNNNNNNNNNNmmmMMM  a<tks,1by",
"vfe#8,,e   mmmMMMMMMMMMMMMMMMMMmmm  8b4e@=#&w",
"f<,#3i&&   mmmMMMMMMMMMMMMMMMMMmmm  pvvvy2-*n",
":&,7akl*   mmmMMMMMMMMMMMMMMMMMmmm  x.7.=-&3h",
"h8g3#lck   mmmMMMMMMNNNNNMMMMMMmmm  aOc0i>o;t",
"*d>j@776   mmmMMMMMMNNNNNMMMMMMmmm  hk5lxavy>",
"=y-c;%vs   mmmMMMMMMNNNNNMMMMMMmmm  uusjq5s<p",
".0X7n@9%   mmmMMMMMMMMMMMMMMMMMmmm  %jj+sfX;4",
"k1,7&7n5   mmmMMMMMMMMMMMMMMMMMmmm  x82$uxkx-",
"t6ntx=76@#o   mmmMMMMMMMMMMMmmm   =#euan:7O>y",
">::a;9*--j.   mmmMMMMMMMMMMMmmm   %Xd3#0d94+p",
"x&463oj5<,*   mmmMMMMMMMMMMMmmm   hX@#=>3*ona",
"k6pq9qjf            mmmmm           e<;5aewkr",
"7i>nl@Xb            mmmmm           wteq:g<9@",
"O9;x$;=4            mmmmm           nshr6;#i>",
"hg5h7q  NNNNNNmmmmmmNNNNNmmmmmmNNNNN   $a#z6#",
"yvf>u7  NNNNNNmmmmmmNNNNNmmmmmmNNNNN   8-7:.@",
"37sc$r  NNNNNNmmmmmmNNNNNmmmmmmNNNNN   9ky,7g",
"&$p   NNMMM   MMMMMMNNNNNMMMMMM   MMNNN   &n%",
"g6<   NNMMM   MMMMMMNNNNNMMMMMM   MMNNN   ,f>",
"O62   NNMMM   MMMMMMNNNNNMMMMMM   MMNNN   u4i",
"2f@   NNNNN   mmmmmmNNNNNmmmmmm   NNNNN   ,l,",
":5,   NNNNN   mmmmmmNNNNNmmmmmm   NNNNN   k=b",
"zw#hl@           MMMMMMMMMMM           zuru;>",
"c<jij1           MMMMMMMMMMM           -,=2cq",
"X*.9kj           MMMMMMMMMMM           ,$s7u$",
"0or%$shbs;l   mmmmmm     mmmmmm   k48hri&+isi",
"ckoh6,zkfl$   mmmmmm     mmmmmm   jq=4z7q0,j4",
"tb.t*7<=#9p   mmmmmm     mmmmmm   @ag2z;.rofj",
"f9c-@l,aXs3,x8      1d>$r      cvfgu8&7+h-Owj",
"u@ppwO52q+vr&&      kxf6X      i;r:l$y2h#1<8a",
";x:q=j27:X8*tl      coz+u      2#utf8Osvsh74o"
};
