/* XPM */
static char *_317_f644e2c82e55223eecb898f0cd5ec1606f6c8cafaefe362d3bab8128c1a16fbe[] = {
/* columns rows colors chars-per-pixel */
"45 45 57 1 ",
"  c #0A112B",
". c #C92B44",
"X c #9FAC40",
"o c #9FAE41",
"O c #A0AD40",
"+ c #A0AF41",
"@ c #A1B042",
"# c #A2B142",
"$ c #A3B143",
"% c #A4B343",
"& c #A5B343",
"* c #A6B444",
"= c #A7B544",
"- c #A8B645",
"; c #A9B745",
": c #AAB846",
"> c #ABB946",
", c #ACBA45",
"< c #ADBB47",
"1 c #AEBC46",
"2 c #AFBD48",
"3 c #B0BE47",
"4 c #B1BF49",
"5 c #B1C048",
"6 c #B3C249",
"7 c #B2C14A",
"8 c #B4C349",
"9 c #B5C44A",
"0 c #B6C54A",
"q c #B7C64B",
"w c #B8C74B",
"e c #B9C84C",
"r c #BAC94C",
"t c #BBCA4C",
"y c #BCCB4D",
"u c #BDCC4D",
"i c #BECD4E",
"p c #BFCE4E",
"a c #C0CF4F",
"s c #C1D04F",
"d c #C2D150",
"f c #C3D250",
"g c #C2D350",
"h c #C3D451",
"j c #C4D551",
"k c #C5D652",
"l c #C6D752",
"z c #C7D853",
"x c #C8D953",
"c c #C9DA53",
"v c #CADB54",
"b c #CBDC54",
"n c #CCDD55",
"m c #CDDE55",
"M c #65709C",
"N c #A3A9C4",
"B c #E0E1E9",
/* pixels */
",z@<:=O5uku#7-                 +vd%vO4@gh&h*o",
"8tf1cb<2e9y0-&                 $x#<3kz<h9kg>e",
"6yx#0ln;n>=k5k                 n$9j=6%9d+m%2-",
"n&v3g-1g9:m   NNNBBBBBBBBBBBNNN   z<ibvkwt%q:",
"184ny>Ore0h   NNNBBBBBBBBBBBNNN   hms*f1Oxa47",
"rmso1=qs:h9   NNNBBBBBBBBBBBNNN   4:fkcfsodrx",
"9;,58@i1   NNNBBBBBBBBBBBBBBBBBNNN  mnX9h>v&1",
"jgpm;t9e   NNNBBBBBBBBBBBBBBBBBNNN  @;Xn1v*9+",
"%gdoixs+   NNNBBBBBBBBBBBBBBBBBNNN  4lkzdsxp9",
"@a398s1e   NNNBBBBBBBBBBBBBBBBBNNN  +rns*:7<%",
"r>-,d%d0   NNNBBBBBBBBBBBBBBBBBNNN  OhzkX9kq-",
"*&jc=$8u   MMMNNNBBBBBBBBBBBNNNMMM  jv;mk7>w9",
"rrkk:i#2   MMMNNNBBBBBBBBBBBNNNMMM  Xe2*9<u&h",
",@,epi5f   MMMNNNBBBBBBBBBBBNNNMMM  s1yld<2nu",
"bgr$9<<r   NNN   NNNBBBBBNNN   NNN  9n5r#-$*e",
"g1<$4p**   NNN   NNNBBBBBNNN   NNN  abbbu3;=m",
">*<8slz=   NNN   NNNBBBBBNNN   NNN  cX8X-;*4j",
"j9h4$zvl   NNN      NNNNN      NNN  s+vqp,O:y",
"=f,k#887   NNN      NNNNN      NNN  jl6zcsbu,",
"-u;v:&bd   NNN      NNNNN      NNN  iidkw6d1a",
"Xqo8m#0&   NNN   ...BBBBB...   NNN  &kk@dgo:5",
"l2<8*8m6   NNN   ...BBBBB...   NNN  c93%iclc;",
"y7myc-87#$O   NNNBBBMMMMMBBBNNN   -$rism>8+,u",
",>>s:0=;;kX   NNNBBBMMMMMBBBNNN   &of4$qf05@a",
"c*574Ok61<=   NNNBBBMMMMMBBBNNN   jo#$-,4=Oms",
"l7aw0wkg      BBB   BBBBB   BBB     r1:6srelt",
"8p,mz#on      BBB   BBBBB   BBB     eyrw>h10#",
"+0:c%:-5      BBB   BBBBB   BBB     mdjt7:$p,",
"jh6j8w  BBBBBB                 BBBBB   %s$x7$",
"ubg,i8  BBBBBB                 BBBBB   9;8>X#",
"48dv%t  BBBBBB                 BBBBB   0lu<8h",
"*%    BBNNN   MMMNNNBBBBBNNNMMM   NNBBB   *m&",
"h7    BBNNN   MMMNNNBBBBBNNNMMM   NNBBB   <g,",
"+7    BBNNN   MMMNNNBBBBBNNNMMM   NNBBB   i5p",
"3g    BBBBB   NNNBBBMMMMMBBBNNN   BBBBB   <z<",
">6    BBBBB   NNNBBBMMMMMBBBNNN   BBBBB   l-n",
"xe$jz#           MMMNNNNNMMM           xiti:,",
"v1kpk2           MMMNNNNNMMM           ;<-3vw",
"o=X0lk           MMMNNNNNMMM           <%d8i%",
"qOt&%djnd:z   NNNNNN     NNNNNN   l59jtp*@pdp",
"vlOj7<xlgz%   NNNNNN     NNNNNN   kw-5x8wq<k5",
"ynXy=81-$0a   NNNNNN     NNNNNN   #sh3x:XtOgk",
"g0v;#z<sod4<c9      2f,%t      vbghi9*8@j;+ek",
"i#aae+63w@bt**      lcg7o      p:t>z%u3j$219s",
":c>w-k38>o9=yz      vOx@i      3$iyg9+dbdj85O"
};
