/* XPM */
static char *_700_0d435c229b528630e5ba75f717332b073025a9677ba3e394588c181910db12a6[] = {
/* columns rows colors chars-per-pixel */
"45 45 57 1 ",
"  c #0A112B",
". c #C92B44",
"X c #9FAC40",
"o c #9FAE41",
"O c #A0AD40",
"+ c #A0AF41",
"@ c #A1B042",
"# c #A2B142",
"$ c #A3B143",
"% c #A4B343",
"& c #A5B343",
"* c #A6B444",
"= c #A7B544",
"- c #A8B645",
"; c #A9B745",
": c #AAB846",
"> c #ABB946",
", c #ACBA45",
"< c #ADBB47",
"1 c #AEBC46",
"2 c #AFBD48",
"3 c #B0BE47",
"4 c #B1BF49",
"5 c #B1C048",
"6 c #B3C249",
"7 c #B2C14A",
"8 c #B4C349",
"9 c #B5C44A",
"0 c #B6C54A",
"q c #B7C64B",
"w c #B8C74B",
"e c #B9C84C",
"r c #BAC94C",
"t c #BBCA4C",
"y c #BCCB4D",
"u c #BDCC4D",
"i c #BECD4E",
"p c #BFCE4E",
"a c #C0CF4F",
"s c #C1D04F",
"d c #C2D150",
"f c #C3D250",
"g c #C2D350",
"h c #C3D451",
"j c #C4D551",
"k c #C5D652",
"l c #C6D752",
"z c #C7D853",
"x c #C8D953",
"c c #C9DA53",
"v c #CADB54",
"b c #CBDC54",
"n c #CCDD55",
"m c #CDDE55",
"M c #65709C",
"N c #A3A9C4",
"B c #E0E1E9",
/* pixels */
",z@<:=O5uku#7-                 +vd%vO4@gh&h*o",
"8tf1cb<2e9y0-&                 $x#<3kz<h9kg>e",
"6yx#0ln;n>=k5k                 n$9j=6%9d+m%2-",
"n&v3g-1g9:m   NNNNNNBBBBBBBBBBB   z<ibvkwt%q:",
"184ny>Ore0h   NNNNNNBBBBBBBBBBB   hms*f1Oxa47",
"rmso1=qs:h9   NNNNNNBBBBBBBBBBB   4:fkcfsodrx",
"9;,58@i1   NNNNNNBBBBBBBBBBBBBBBBB  mnX9h>v&1",
"jgpm;t9e   NNNNNNBBBBBBBBBBBBBBBBB  @;Xn1v*9+",
"%gdoixs+   NNNNNNNNNNNBBBBBBBBBBBB  4lkzdsxp9",
"@a398s1e   NNNNNNNNNNNBBBBBBBBBBBB  +rns*:7<%",
"r>-,d%d0   NNNNNNNNNNNBBBBBBBBBBBB  OhzkX9kq-",
"*&jc=$8u   NNNNNNNNNNNNNNNNNBBBBBB  jv;mk7>w9",
"rrkk:i#2   NNNNNNNNNNNNNNNNNBBBBBB  Xe2*9<u&h",
",@,epi5f   NNNNNNNNNNNNNNNNNBBBBBB  s1yld<2nu",
"bgr$9<<r   NNNMMMMMMNNBBB   NNNBBB  9n5r#-$*e",
"g1<$4p**   NNNMMMMMMNNBBB   NNNBBB  abbbu3;=m",
">*<8slz=   NNNMMMMMMNNBBB   NNNBBB  cX8X-;*4j",
"j9h4$zvl   MMMNNNNNNMMBBB      NNN  s+vqp,O:y",
"=f,k#887   MMMNNNNNNMMBBB      NNN  jl6zcsbu,",
"-u;v:&bd   MMMNNNNNNMMBBB      NNN  iidkw6d1a",
"Xqo8m#0&   MMMNNNNNNNNNNN   ...BBB  &kk@dgo:5",
"l2<8*8m6   MMMNNNNNNNNNNN   ...BBB  c93%iclc;",
"y7myc-87#$O   MMMMMMNNNNNNNNBBBMMM  rism>8+,u",
",>>s:0=;;kX   MMMMMMNNNNNNNNBBBMMM  f4$qf05@a",
"c*574Ok61<=   MMMMMMNNNNNNNNBBBMMM  #$-,4=Oms",
"l7aw0wkg5:,>-y   MMM  BBBBBB   BBB  r1:6srelt",
"8p,mz#onae;%,1   MMM  BBBBBB   BBB  eyrw>h10#",
"+0:c%:-58#s,c=   MMM  BBBBBB   BBB  mdjt7:$p,",
"jh6j8w6t+wj%8=   NNNMM            bw#ja%s$x7$",
"ubg,i8&d-0OoeX   NNNMM            u:O:89;8>X#",
"48dv%tsd5p7>1n   NNNMM            :ph=n0lu<8h",
"*%ah%i+21-%6+:   BBB  NNNBBB   b&0h4e4=5g8*m&",
"h71,w4Osh>;r*:   BBB  NNNBBB   0bxz&=wev<><g,",
"+738>9fkO9Ojx=   BBB  NNNBBB   $6sr5iaOuhri5p",
"3g#ifs<;l&-ar>   BBBNN   NNN   gruut*&jx>d<z<",
">6<l5xjjy<w9ql   BBBNN   NNN   a;vv2wf2%<nl-n",
"xe$jz#c;qqO2d<   BBBBB   BBB   pv:c+k>;xiti:,",
"v1kpk2k1bliccj   BBBBB   BBB   4,1va8y$;<-3vw",
"o=X0lkvzt+cwrh   BBBBB   BBB   ef<uaq-,<%d8i%",
"qOt&%djnd:z&6y;n,     MMMMMM   9ggl59jtp*@pdp",
"vlOj7<xlgz%8cc1np     MMMMMM   t29kw-5x8wq<k5",
"ynXy=81-$0a0>4c3j     MMMMMM   5s,#sh3x:XtOgk",
"g0v;#z<sod4<c9i@kl8#2f      >:evbghi9*8@j;+ek",
"i#aae+63w@bt**v-5zfclc      Oe3p:t>z%u3j$219s",
":c>w-k38>o9=yzf@0wbzvO      ha%3$iyg9+dbdj85O"
};
