/* XPM */
static char *_2876_c8f4c6525ec2ff9a034518cac797fd3e6875a85b802286cda0a1a6380f85f66a[] = {
/* columns rows colors chars-per-pixel */
"45 45 57 1 ",
"  c #0A112B",
". c #C92B44",
"X c #9FAC40",
"o c #9FAE41",
"O c #A0AD40",
"+ c #A0AF41",
"@ c #A1B042",
"# c #A2B142",
"$ c #A3B143",
"% c #A4B343",
"& c #A5B343",
"* c #A6B444",
"= c #A7B544",
"- c #A8B645",
"; c #A9B745",
": c #AAB846",
"> c #ABB946",
", c #ACBA45",
"< c #ADBB47",
"1 c #AEBC46",
"2 c #AFBD48",
"3 c #B0BE47",
"4 c #B1BF49",
"5 c #B1C048",
"6 c #B3C249",
"7 c #B2C14A",
"8 c #B4C349",
"9 c #B5C44A",
"0 c #B6C54A",
"q c #B7C64B",
"w c #B8C74B",
"e c #B9C84C",
"r c #BAC94C",
"t c #BBCA4C",
"y c #BCCB4D",
"u c #BDCC4D",
"i c #BECD4E",
"p c #BFCE4E",
"a c #C0CF4F",
"s c #C1D04F",
"d c #C2D150",
"f c #C3D250",
"g c #C2D350",
"h c #C3D451",
"j c #C4D551",
"k c #C5D652",
"l c #C6D752",
"z c #C7D853",
"x c #C8D953",
"c c #C9DA53",
"v c #CADB54",
"b c #CBDC54",
"n c #CCDD55",
"m c #CDDE55",
"M c #65709C",
"N c #A3A9C4",
"B c #E0E1E9",
/* pixels */
",z@<:=O5uku#7-                 +vd%vO4@gh&h*o",
"8tf1cb<2e9y0-&                 $x#<3kz<h9kg>e",
"6yx#0ln;n>=k5k                 n$9j=6%9d+m%2-",
"n&v3g-1g9:m   BBBBBBBBBBBNNNNNN   z<ibvkwt%q:",
"184ny>Ore0h   BBBBBBBBBBBNNNNNN   hms*f1Oxa47",
"rmso1=qs:h9   BBBBBBBBBBBNNNNNN   4:fkcfsodrx",
"9;,58@i1   BBBBBBBBBBBBBBBBBNNNNNN   nX9h>v&1",
"jgpm;t9e   BBBBBBBBBBBBBBBBBNNNNNN   ;Xn1v*9+",
"%gdoixs+   BBBBBBBBBBBNNNNNNNNNNNN   lkzdsxp9",
"@a398s1e   BBBBBBBBBBBNNNNNNNNNNNN   rns*:7<%",
"r>-,d%d0   BBBBBBBBBBBNNNNNNNNNNNN   hzkX9kq-",
"*&jc=$8u   BBBBBBNNNNNNNNNNNNNNNNN   v;mk7>w9",
"rrkk:i#2   BBBBBBNNNNNNNNNNNNNNNNN   e2*9<u&h",
",@,epi5f   BBBBBBNNNNNNNNNNNNNNNNN   1yld<2nu",
"bgr$9<<r   BBBNNN   BBNNNMMMMMMNNN   n5r#-$*e",
"g1<$4p**   BBBNNN   BBNNNMMMMMMNNN   bbbu3;=m",
">*<8slz=   BBBNNN   BBNNNMMMMMMNNN   X8X-;*4j",
"j9h4$zvl   NNN      BBMMMNNNNNNMMM   +vqp,O:y",
"=f,k#887   NNN      BBMMMNNNNNNMMM   l6zcsbu,",
"-u;v:&bd   NNN      BBMMMNNNNNNMMM   idkw6d1a",
"Xqo8m#0&   BBB...   NNNNNNNNNNNMMM   kk@dgo:5",
"l2<8*8m6   BBB...   NNNNNNNNNNNMMM   93%iclc;",
"y7myc-87   MMMBBBNNNNNNNNMMMMMM   -$rism>8+,u",
",>>s:0=;   MMMBBBNNNNNNNNMMMMMM   &of4$qf05@a",
"c*574Ok6   MMMBBBNNNNNNNNMMMMMM   jo#$-,4=Oms",
"l7aw0wkg   BBB   BBBBB   MMM   5x>$-r1:6srelt",
"8p,mz#on   BBB   BBBBB   MMM   csonceyrw>h10#",
"+0:c%:-5   BBB   BBBBB   MMM   g#td=mdjt7:$p,",
"jh6j8w6t+wj           MMMNNN   @1>bw#ja%s$x7$",
"ubg,i8&d-0O           MMMNNN   e2au:O:89;8>X#",
"48dv%tsd5p7           MMMNNN   d5u:ph=n0lu<8h",
"*%ah%i+21-%6+:   BBBNN   BBB   b&0h4e4=5g8*m&",
"h71,w4Osh>;r*:   BBBNN   BBB   0bxz&=wev<><g,",
"+738>9fkO9Ojx=   BBBNN   BBB   $6sr5iaOuhri5p",
"3g#ifs<;l&-ar>   NNN  NNNBBB   gruut*&jx>d<z<",
">6<l5xjjy<w9ql   NNN  NNNBBB   a;vv2wf2%<nl-n",
"xe$jz#c;qqO2d<   BBB  BBBBBB   pv:c+k>;xiti:,",
"v1kpk2k1bliccj   BBB  BBBBBB   4,1va8y$;<-3vw",
"o=X0lkvzt+cwrh   BBB  BBBBBB   ef<uaq-,<%d8i%",
"qOt&%djnd:z&6y   MMMMM      u@O9ggl59jtp*@pdp",
"vlOj7<xlgz%8cc   MMMMM      #ydt29kw-5x8wq<k5",
"ynXy=81-$0a0>4   MMMMM      q5+5s,#sh3x:XtOgk",
"g0v;#z<sod4<c9i@k     ,%t837>:evbghi9*8@j;+ek",
"i#aae+63w@bt**v-5     g7oc+;Oe3p:t>z%u3j$219s",
":c>w-k38>o9=yzf@0     x@i>3;ha%3$iyg9+dbdj85O"
};
