/* XPM */
static char *_0818_b9bcf8e5f920c759ac439e3fc708020c9b28335a5279a481fcf0ab6fd7191daa[] = {
/* columns rows colors chars-per-pixel */
"45 45 59 1 ",
"  c #120C20",
". c #5B303D",
"X c #005652",
"o c #007E4B",
"O c #A24C57",
"+ c #D56A62",
"@ c #18AD31",
"# c #9FAC40",
"$ c #9FAE41",
"% c #A0AD40",
"& c #A0AF41",
"* c #A1B042",
"= c #A2B142",
"- c #A3B143",
"; c #A4B343",
": c #A5B343",
"> c #A6B444",
", c #A7B544",
"< c #A8B645",
"1 c #A9B745",
"2 c #AAB846",
"3 c #ABB946",
"4 c #ACBA45",
"5 c #ADBB47",
"6 c #AEBC46",
"7 c #AFBD48",
"8 c #B0BE47",
"9 c #B1BF49",
"0 c #B1C048",
"q c #B3C249",
"w c #B2C14A",
"e c #B4C349",
"r c #B5C44A",
"t c #B6C54A",
"y c #B7C64B",
"u c #B8C74B",
"i c #B9C84C",
"p c #BAC94C",
"a c #BBCA4C",
"s c #BCCB4D",
"d c #BDCC4D",
"f c #BECD4E",
"g c #BFCE4E",
"h c #C0CF4F",
"j c #C1D04F",
"k c #C2D150",
"l c #C3D250",
"z c #C2D350",
"x c #C3D451",
"c c #C4D551",
"v c #C5D652",
"b c #C6D752",
"n c #C7D853",
"m c #C8D953",
"M c #C9DA53",
"N c #CADB54",
"B c #CBDC54",
"V c #CCDD55",
"C c #CDDE55",
/* pixels */
"4n*52,%0dvd=w<rzVl5     4xlV<uN&Nk;N%9*zx:x>$",
"eal6MB57irst<:<:   oooooX   ix0-m=58vn5xrvz3i",
"qsm=tbV1V3,v0 ooooo@@@@@oooooX V-rc,q;rk&C;7<",
"V:N8z<6zr2C ooooo@@@@@@@@@@ooooo vn5fBNvua;y2",
"6e9Vs3%pit oooo@@@@@@@@@@@@@@oooo xCj>l6%mh9w",
"pCj$6,yj2 oooo@@@@@@@@@@@@@@@ooooo92lvMlj$kpm",
"r140e*f6yooooo@@@@@@@@@@@@@@@@oooo BCV#rx3N:6",
"czgC1ar Xooooo@@@@@@@@@@@@@@@@oooooX 1#V6N>r&",
";zk$fm Xoooooo@@@@@@@@@@@@@@@oooooooX vnkjmgr",
"*h8rej oooooooo@@@@@@@@@@@@@@oooooooo Vj>2w5;",
"p3<4k Xoooooooooo@@@@@@@@@@ooooooooooX v#rvy<",
">:cM,Xooooooooooooo@@@@@ooooooooooooooXCvw3ur",
"ppvvXoooooooooooooooooooooooooooooooooo>r5d:x",
"4*4iXoooooooooooooooooooooooooooooooooo k57Vd",
"Bzp-ooooooooooooooooooooooooooooooooooo =<->i",
"z65 oooooooooooooooooooooooooooooooooooX 81,C",
"3>5 oooooooooooooooooooooooooooooooooooX 1>9c",
"crxXooooooooooooooooooooooooooooooooooooX4%2s",
",l XooooooooooooooooooooooooooooooooooooX Bd4",
"<d XooooooooooooooooooooooooooooooooooooX k6h",
"#y XooooooooooooooooooooooooooooooooooooX $20",
"b7 XooooooooooooooooooooooooooooooooooooX bM1",
"sw XooooooooooooooooooooooooooooooooooooX &4d",
"433XooooooooooooooooooooooooooooooooooooXt0*h",
"M>0 oooooooooooooooooooooooooooooooooooX ,%Cj",
"bwh oooooooooooooooooooooooooooooooooooX piba",
"eg4 XooooooooooooooooooooooooooooooooooX x6t=",
"&t2MXXXXooooooooooXXXXXXXXooooooooooXXX w2-g4",
"cxqcXXXXXoooooooXXXXXXXXXXXXooooooXXXXX j-mw-",
"dBz4 XXXXXXoooXXXXXXXXXXXXXXXooooXXXXXXr1e3#=",
"9ekN XXXXXXXXXXXXXXXXXXXXXXXXXXXXXXXXXXtbd5ex",
">;hx; XXXXXXXXXXXXXXXXXXXXXXXXXXXXXXXX 0ze>C:",
"xw64u9 XXXXXXXXXXXXXXXXXXXXXXXXXXXXXX iN535z4",
"&w8e3rl XXXXXXXXXXXXXXXXXXXXXXXXXXXX h%dxpf0g",
"8z=flj51 XXXXXXXXXXXXXXXXXXXXXXXXXX >:cm3k5n5",
"3q5b0mccs XXXXXXXXXXXXXXXXXXXXXXXX 7ul7;5Vb<V",
"mi-cn=M1yy  XXXXXXXXXXXXXXXXXXXX  M&v31mfaf24",
"N6vgv7v6BbfMMcni   XXXXX    m2V946Nhes-15<8Nu",
"$,#tbvNna&Mupxp .O..    ..O. B%il5dhy<45;kef;",
"y%a:;kcVk2n:qs O+OO.O..O.OO+O*%rzzb0rcag>*gkg",
"Nb%cw5mbzn;eMM .OO..+OO+..OO.ska7rvu<0meuy5v0",
"sV#s,e6<-tht39 ... .O++O  ...0&0j4=jx8m2#a%zv",
"ztN1=n5j$k95Mrf*vbe .OO.ae8w32iNBzxfr>e*c1&iv",
"f=hhi&q8u*Ba>>N<0nlM .. $M&1%i8g2a3n;d8c-76rj",
"2M3u<v8e3$r,snl*tuBnN  *f381xh;8-fszr&kBkce0%"
};
