/* XPM */
static char *_379_5b9b839e1f0405a16ff98d12a677da23ac5910793bb622a664294dae0f06f475[] = {
/* columns rows colors chars-per-pixel */
"45 45 118 2 ",
"   c #0A112B",
".  c #0C112B",
"X  c #0D122B",
"o  c #15122C",
"O  c #17162E",
"+  c #1F132D",
"@  c #1A172E",
"#  c #1E192F",
"$  c #2C142E",
"%  c #271C31",
"&  c #3E1831",
"*  c #352236",
"=  c #411831",
"-  c #691E37",
";  c #5B303D",
":  c #7F213A",
">  c #272744",
",  c #353D5F",
"<  c #96233C",
"1  c #B32841",
"2  c #B72942",
"3  c #BA2942",
"4  c #C12A43",
"5  c #C82B44",
"6  c #C92B44",
"7  c #C33147",
"8  c #C43046",
"9  c #C43047",
"0  c #C23248",
"q  c #964E50",
"w  c #9D5152",
"e  c #9E5152",
"r  c #AB4553",
"t  c #AC4453",
"y  c #A94654",
"u  c #A44B57",
"i  c #A24C57",
"p  c #B04151",
"a  c #A65454",
"s  c #AF5A57",
"d  c #CF4158",
"f  c #CE445A",
"g  c #CF475E",
"h  c #D04A60",
"j  c #D46962",
"k  c #D56A62",
"l  c #FFB632",
"z  c #9FAC40",
"x  c #9FAE41",
"c  c #A0AD40",
"v  c #A0AF41",
"b  c #A1B042",
"n  c #A2B142",
"m  c #A3B143",
"M  c #A4B343",
"N  c #A5B343",
"B  c #A6B444",
"V  c #A7B544",
"C  c #A8B645",
"Z  c #A9B745",
"A  c #AAB846",
"S  c #ABB946",
"D  c #ACBA45",
"F  c #ADBB47",
"G  c #AEBC46",
"H  c #AFBD48",
"J  c #B0BE47",
"K  c #B1BF49",
"L  c #B1C048",
"P  c #B3C249",
"I  c #B2C14A",
"U  c #B4C349",
"Y  c #B5C44A",
"T  c #B6C54A",
"R  c #B7C64B",
"E  c #B8C74B",
"W  c #B9C84C",
"Q  c #BAC94C",
"!  c #BBCA4C",
"~  c #BCCB4D",
"^  c #BDCC4D",
"/  c #BECD4E",
"(  c #BFCE4E",
")  c #C0CF4F",
"_  c #C1D04F",
"`  c #C2D150",
"'  c #C3D250",
"]  c #C2D350",
"[  c #C3D451",
"{  c #C4D551",
"}  c #C5D652",
"|  c #C6D752",
" . c #C7D853",
".. c #C8D953",
"X. c #C9DA53",
"o. c #CADB54",
"O. c #CBDC54",
"+. c #CCDD55",
"@. c #CDDE55",
"#. c #FFEE7D",
"$. c #FFEF7D",
"%. c #FFED7E",
"&. c #FFEE7E",
"*. c #FFD593",
"=. c #FFD692",
"-. c #FFD295",
";. c #FFD494",
":. c #FFD891",
">. c #FFC2A0",
",. c #FFC2A1",
"<. c #FFC3A1",
"1. c #FFC4A1",
"2. c #DEB7C3",
"3. c #DEB7C4",
"4. c #DEB8C4",
"5. c #DFE0E8",
"6. c #E0E0E8",
"7. c #E0E1E9",
/* pixels */
"D  .b F A V c L ^ } ^ n I C Y ] +.' F m G A I ~ D [ ' +.C E o.v o.` M o.c K b ] [ N [ B x ",
"U ! ' G X.O.F H W Y ~ T C N                                   m ..n F J }  .F [ Y } ] S W ",
"P ~ ..n T |           } L }                                   +.m Y           ` v @.M H C ",
"+.N o.J ] C                 , , , , , , , , , , , , , , , , ,                 } E ! M R A ",
"G U K +.~ S                 , , , , , , , , , , , , , , , , ,                 G c ..) K I ",
"Q @._ x G V                 , , , , , , , , , , , , , , , , ,                 ' _ x ` Q ..",
"Y Z D       $.$.      , , , , , , , , , , , , , , , , , , , , , , ,     $.$.$.        N G ",
"{ ] (       $.$.      , , , , , , , , , , , , , , , , , , , , , , ,     $.$.$.        Y v ",
"M ] `       $.$.      , , , , , , , , , , , , , , , , , , , , , , ,     $.$.$.        ( Y ",
"b ) J       $.$.      , , , , , , , , , , , , , , , , , , , , , , ,     $.$.$.        F M ",
"Q S C       $.$.      , , , , , , , , , , , , , , , , , , , , , , ,     $.$.$.        R C ",
"B N {       $.$.      , , , , , , , , , , , , , , , , , , , , , , ,     $.$.$.        E Y ",
"Q Q }       $.$.      , , , <.<.<., , , , , , , , , , , <.<.<., , ,     $.$.$.        N [ ",
"D b D       $.$.      , , , <.<.<., , , , , , , , , , , <.<.<., , ,     $.$.$.        +.^ ",
"O.] Q                 , , , <.<.<., , , , , , , , , , , <.<.<., , ,                   B W ",
"] G F                 , , , <.<.<.<.<.<.<.<.<.<.<.<.<.<.<.<.<., , ,                   V @.",
"S B F                 , , , <.<.<.<.<.<.<.<.<.<.<.<.<.<.<.<.<., , ,                   K { ",
"{ Y [           <.<.<., , , > > > > > > <.<.<.<.<.> > > > > > , , , <.<.              A ~ ",
"V ' D           <.<.<., , , > > > > > > <.<.<.<.<.> > > > > > , , , <.<.              ^ D ",
"C ^ Z           <.<.<., , , > > > > > > <.<.<.<.<.> > > > > > , , , <.<.              G ) ",
"z R x           <.<.<., , , <.<.<.      <.<.<.<.<.      <.<.<., , , <.<.              A L ",
"| H F           <.<.<., , , <.<.<.      <.<.<.<.<.      <.<.<., , , <.<.              X.Z ",
"~ I @.          <.<.<., , , <.<.<.      <.<.<.<.<.      <.<.<., , , <.<.              D ^ ",
"D S S       l l       k k k <.<.<.      k k k k k       <.<.<.k k k     l l l         b ) ",
"X.B L       l l       k k k <.<.<.      k k k k k       <.<.<.k k k     l l l         @._ ",
"| I )       l l       k k k <.<.<.      k k k k k       <.<.<.k k k     l l l         | ! ",
"U ( D       l l             k k k <.<.<.<.<.<.<.<.<.<.<.k k k           l l l         T n ",
"v T A       l l             k k k <.<.<.<.<.<.<.<.<.<.<.k k k           l l l         ( D ",
"{ [ P       l l             k k k <.<.<.<.<.<.<.<.<.<.<.k k k           l l l         I m ",
"^ O.]           <.<.<.7.7.7.; ; ; i i i 7.7.7.7.7.i i i ; ; ; 7.7.7.<.<.              z n ",
"K U `       X X >.,.<.5.7.7.; ; ; i i i 7.7.7.7.7.i i i ; ; ; 7.7.7.<.<.              U [ ",
"B M )       :.-.w a s $ + o u i i i i i 6.6.6.6.6.i i i i i i . . . j j <.1.1.        @.N ",
"[ I G       $.%.# % * < : - p r y y r t 2.3.4.4.3.t t t t t t & & = e q ;.*.=.        ] D ",
"v I J       $.$.    . 5 5 4 8 7 0 7 9 8 d f g h h 7 9 8 8 8 8 1 2 3 @ O %.&.#.        L ( ",
"J ] n       $.$.      6 6 6 6 6 6 6 6 6 6 6 6 6 6 6 6 6 6 6 6 6 6 6     $.$.$.         .F ",
"S P F       $.$.      6 6 6 6 6 6 6 6 6 6 6 6 6 6 6 6 6 6 6 6 6 6 6     $.$.$.        C +.",
"..W m       $.$.                                                        $.$.$.        A D ",
"o.G }       $.$.                                                        $.$.$.        o.E ",
"x V z       $.$.                                                        $.$.$.        / M ",
"R c !       $.$.$.$.$.$.$.$.$.$.$.$.$.$.$.$.$.$.$.$.$.$.$.$.$.$.$.$.$.$.$.$.$.        ` ( ",
"o.| c       $.$.$.$.$.$.$.$.$.$.$.$.$.$.$.$.$.$.$.$.$.$.$.$.$.$.$.$.$.$.$.$.$.        } L ",
"~ +.z       $.$.$.$.$.$.$.$.$.$.$.$.$.$.$.$.$.$.$.$.$.$.$.$.$.$.$.$.$.$.$.$.$.        ] } ",
"] T o.      l l                                                         l l l         W } ",
"/ n )       l l                                                         l l l         Y _ ",
"A X.S       l l                                                         l l l         L c "
};
